<?xml version="1.0" standalone="no"?>
<!DOCTYPE svg PUBLIC "-//W3C//DTD SVG 20010904//EN"
 "http://www.w3.org/TR/2001/REC-SVG-20010904/DTD/svg10.dtd">
<svg version="1.0" xmlns="http://www.w3.org/2000/svg"
 width="1920.000000pt" height="1080.000000pt" viewBox="0 0 1920.000000 1080.000000"
 preserveAspectRatio="xMidYMid meet">

<g transform="translate(0.000000,1080.000000) scale(0.100000,-0.100000)"
fill="#000000" stroke="none">
<path d="M7915 10774 c17 -15 41 -34 55 -43 27 -18 46 -32 92 -73 17 -15 46
-38 64 -50 34 -23 51 -48 34 -48 -5 0 -12 5 -15 10 -3 6 -10 10 -15 10 -14 0
1 -84 18 -97 14 -12 14 -13 -4 -14 -16 0 -15 -2 6 -11 22 -10 23 -12 6 -16
-15 -3 -16 -6 -5 -13 9 -6 0 -8 -26 -5 -40 5 -156 11 -455 22 -91 3 -165 2
-180 -4 -30 -12 -8 -14 340 -37 382 -26 651 -61 799 -105 50 -15 67 -16 82 -7
11 7 19 14 19 17 0 4 11 73 25 156 14 82 28 167 31 189 3 22 9 64 13 93 l8 52
-204 0 c-129 0 -203 -4 -203 -10 0 -5 3 -10 8 -10 4 0 23 -14 42 -31 19 -17
51 -43 70 -58 47 -35 61 -49 60 -58 -1 -4 9 -10 22 -13 21 -5 40 -40 21 -40
-4 0 -8 -29 -8 -66 0 -44 -5 -68 -14 -74 -12 -7 -12 -11 2 -24 8 -9 20 -16 26
-16 6 0 11 -6 11 -12 0 -9 4 -8 11 2 8 12 9 9 5 -12 -4 -16 -1 -28 7 -31 9 -4
9 -6 -1 -6 -7 -1 -15 6 -19 15 -4 12 -8 13 -14 3 -6 -10 -16 -10 -51 1 -24 7
-50 20 -59 27 -8 7 -20 13 -26 13 -6 0 -13 4 -15 9 -3 8 -72 62 -242 189 -39
28 -82 60 -96 69 -50 34 -135 98 -154 116 -12 10 -36 17 -60 17 l-41 0 30 -26z
m745 -194 c0 -5 -4 -10 -10 -10 -5 0 -10 5 -10 10 0 6 5 10 10 10 6 0 10 -4
10 -10z m10 -49 c0 -5 -7 -14 -15 -21 -12 -10 -15 -10 -15 2 0 8 3 18 7 21 9
10 23 9 23 -2z m-503 -33 c-3 -8 -6 -5 -6 6 -1 11 2 17 5 13 3 -3 4 -12 1 -19z
m63 -18 c8 -5 11 -10 5 -10 -5 0 -17 5 -25 10 -8 5 -10 10 -5 10 6 0 17 -5 25
-10z m417 -37 c-3 -10 -5 -4 -5 12 0 17 2 24 5 18 2 -7 2 -21 0 -30z m30 0
c-3 -10 -5 -4 -5 12 0 17 2 24 5 18 2 -7 2 -21 0 -30z m20 -35 c-3 -7 -5 -2
-5 12 0 14 2 19 5 13 2 -7 2 -19 0 -25z m-469 15 c-10 -2 -28 -2 -40 0 -13 2
-5 4 17 4 22 1 32 -1 23 -4z m449 -45 c-3 -8 -6 -5 -6 6 -1 11 2 17 5 13 3 -3
4 -12 1 -19z"/>
<path d="M10616 10739 c-9 -88 -8 -99 9 -99 11 0 15 -11 15 -40 0 -29 4 -40
15 -40 10 0 15 -11 15 -35 0 -19 5 -35 11 -35 26 0 -7 -21 -74 -45 -39 -14
-83 -32 -97 -39 -14 -8 -31 -11 -37 -9 -7 3 -13 0 -13 -5 0 -7 -110 -64 -130
-67 -3 0 -23 -12 -45 -25 -22 -14 -57 -34 -77 -44 -21 -11 -38 -23 -38 -29 0
-5 -9 -7 -20 -4 -11 3 -18 2 -15 -2 4 -7 -47 -51 -59 -51 -3 0 -14 -7 -23 -15
-10 -8 -48 -36 -85 -63 -170 -124 -333 -282 -564 -543 -77 -87 -203 -241 -321
-394 -94 -122 -310 -433 -402 -580 -24 -38 -58 -92 -76 -120 -105 -165 -291
-492 -426 -750 -87 -165 -316 -626 -344 -692 -17 -40 -57 -64 -71 -42 -3 5
-41 9 -85 9 -100 0 -272 -21 -262 -31 4 -4 28 -3 53 2 46 11 314 9 325 -3 3
-3 -14 -48 -38 -99 -230 -484 -420 -912 -507 -1143 -21 -56 -46 -118 -55 -140
l-16 -39 -45 44 c-67 66 -123 141 -169 230 -23 44 -45 76 -50 72 -4 -5 -6 -1
-2 9 8 24 -14 92 -26 76 -5 -9 -7 -4 -3 14 3 15 2 29 -4 33 -5 3 -7 12 -3 20
3 8 0 15 -7 15 -9 0 -11 10 -7 33 5 28 5 30 -5 9 -9 -17 -7 -40 10 -101 19
-72 57 -168 71 -181 3 -3 17 -26 31 -52 13 -27 28 -48 32 -48 5 0 8 -5 8 -11
0 -14 57 -87 116 -149 l43 -45 -55 -170 c-175 -536 -249 -1009 -242 -1540 2
-126 0 -235 -5 -242 -4 -6 -1 -13 5 -16 7 -2 10 -7 6 -11 -6 -7 -56 16 -428
197 -102 49 -212 102 -245 117 -33 15 -98 47 -145 70 -47 23 -110 52 -140 64
-117 48 -200 90 -200 102 0 21 89 122 162 183 38 33 138 108 222 168 288 205
417 318 413 361 -3 43 -121 126 -407 287 -383 214 -1010 605 -1010 628 0 4 54
42 119 85 288 187 343 222 466 300 71 46 132 88 133 93 2 5 8 9 14 9 9 0 135
85 148 100 3 3 29 23 57 45 29 21 50 41 48 44 -3 2 -22 -10 -43 -28 -20 -18
-49 -37 -64 -44 -16 -6 -28 -15 -28 -19 0 -4 -7 -8 -16 -8 -8 0 -12 -4 -9 -10
3 -5 -1 -10 -10 -10 -10 0 -13 -5 -9 -12 5 -7 2 -9 -9 -5 -9 3 -17 2 -19 -2
-2 -4 -30 -22 -63 -40 -33 -17 -73 -43 -90 -57 -27 -22 -90 -62 -184 -116 -19
-11 -61 -37 -93 -59 -33 -21 -62 -39 -64 -39 -9 0 -99 -63 -102 -72 -2 -4 -9
-8 -15 -8 -23 0 -207 -134 -207 -150 0 -10 31 -37 73 -65 39 -26 74 -52 75
-57 2 -4 10 -8 18 -8 8 0 14 -4 14 -9 0 -5 13 -14 30 -21 16 -7 30 -16 30 -20
0 -4 15 -15 34 -25 19 -11 33 -22 30 -27 -3 -4 3 -5 12 -1 12 4 15 3 10 -5 -5
-8 -2 -10 8 -6 9 4 18 0 22 -9 3 -8 17 -18 31 -22 17 -4 23 -11 19 -21 -5 -12
-1 -14 15 -9 14 5 19 3 15 -3 -3 -6 4 -14 16 -18 23 -7 128 -74 128 -81 0 -2
-9 -1 -20 2 -13 4 -22 1 -26 -9 -5 -13 -22 -16 -80 -16 -43 0 -74 4 -74 10 0
6 -60 10 -160 10 -91 0 -160 4 -160 9 0 5 -14 23 -31 40 -26 26 -38 31 -80 31
-37 0 -49 4 -49 15 0 11 -11 15 -40 15 -27 0 -40 -4 -40 -14 0 -8 -13 -16 -30
-18 -21 -3 -27 -1 -20 6 18 18 12 39 -10 33 -28 -7 -35 10 -10 23 11 6 18 15
15 21 -4 5 -2 9 2 9 5 0 16 12 25 28 9 15 26 38 38 52 12 14 47 57 77 97 29
40 67 86 83 103 16 17 28 32 27 34 -2 2 39 56 73 96 8 9 26 32 40 50 21 28 63
81 99 126 5 6 30 39 57 75 27 35 53 69 59 74 6 6 24 28 40 50 15 22 33 45 39
50 6 6 24 30 39 55 l29 45 -42 -45 c-23 -25 -64 -70 -91 -100 -26 -30 -69 -78
-94 -106 -25 -29 -55 -65 -68 -80 -12 -16 -29 -36 -38 -44 -9 -8 -36 -40 -60
-70 -24 -30 -51 -62 -59 -70 -8 -9 -42 -47 -75 -85 -33 -39 -79 -91 -102 -116
-24 -25 -43 -49 -43 -53 0 -3 -8 -14 -17 -24 -18 -18 -49 -53 -110 -124 -17
-20 -34 -34 -37 -31 -10 11 -35 -18 -29 -34 5 -13 2 -13 -20 2 -15 9 -27 21
-27 26 0 5 -18 9 -40 9 -30 0 -40 -4 -40 -16 0 -12 -10 -8 -40 16 -30 24 -40
28 -40 16 0 -13 -14 -16 -80 -16 -84 0 -111 16 -37 23 23 2 5 4 -40 5 -48 1
-83 6 -83 12 0 6 -18 10 -40 10 -29 0 -40 4 -40 15 0 10 -10 15 -29 15 -23 0
-30 6 -37 28 -5 20 -8 23 -11 10 -4 -15 -16 -18 -84 -18 -64 0 -79 3 -79 15 0
11 -11 15 -40 15 -29 0 -40 4 -40 15 0 8 -5 15 -11 15 -6 0 -20 12 -32 26 -19
25 -24 26 -85 21 -77 -6 -112 6 -112 40 0 21 -4 23 -49 23 -41 0 -53 4 -69 25
-23 29 -42 33 -42 8 0 -15 -1 -15 -18 0 -10 10 -28 17 -40 17 -12 0 -22 4 -22
9 0 4 -32 12 -72 16 -49 4 -76 12 -84 23 -10 14 -14 15 -30 2 -14 -12 -13 -8
4 17 12 17 22 35 22 40 0 4 16 25 35 46 19 21 35 42 35 47 0 5 9 14 20 20 11
6 19 14 18 18 -3 8 55 92 98 141 16 20 63 81 104 136 40 55 76 102 79 105 5 4
23 27 83 105 4 6 23 28 40 51 42 52 123 166 128 179 2 6 12 17 21 25 19 17 54
70 46 70 -3 0 -51 -55 -108 -122 -57 -68 -106 -125 -109 -128 -3 -3 -25 -30
-50 -60 -25 -30 -47 -57 -50 -60 -8 -8 -113 -132 -152 -180 -20 -25 -47 -57
-60 -71 -13 -15 -39 -46 -58 -69 -19 -24 -39 -48 -45 -54 -5 -6 -25 -29 -44
-51 -84 -99 -145 -165 -152 -165 -4 0 -10 8 -12 17 -4 14 -5 12 -6 -4 -1 -31
-17 -29 -25 2 -5 21 -12 25 -41 25 -24 0 -35 5 -35 15 0 9 -9 15 -24 15 -13 0
-29 7 -36 15 -8 9 -21 13 -32 9 -12 -3 -27 1 -39 12 -17 16 -22 16 -30 4 -8
-13 -14 -10 -34 13 -13 15 -29 27 -35 27 -5 0 -10 5 -10 10 0 6 -14 10 -32 10
-34 0 -128 38 -128 52 0 4 -18 8 -40 8 -29 0 -40 4 -40 15 0 11 -11 15 -40 15
-36 0 -40 3 -40 25 0 23 -3 25 -50 25 -43 0 -55 4 -75 28 -21 23 -26 25 -34
12 -9 -13 -12 -13 -28 3 -11 11 -13 17 -5 17 7 0 10 5 7 10 -3 6 -28 10 -55
10 -39 0 -52 5 -67 23 -10 13 -24 22 -30 20 -7 -3 -18 5 -25 16 -7 12 -18 21
-25 21 -7 0 -13 7 -13 15 0 11 -11 15 -40 15 -22 0 -40 5 -40 10 0 6 -18 10
-40 10 -29 0 -40 4 -40 15 0 10 -10 15 -34 15 -30 0 -35 4 -41 30 -4 17 -11
28 -16 24 -5 -3 -6 -16 -3 -30 4 -14 2 -24 -5 -24 -6 0 -11 8 -11 18 -1 16 -1
16 -14 0 -7 -10 -17 -18 -21 -18 -10 0 23 51 47 71 10 9 18 20 18 24 0 4 17
29 38 55 20 26 46 61 57 76 40 56 110 149 115 154 3 3 29 37 57 75 65 86 55
74 133 175 35 47 68 90 72 95 4 6 30 37 56 70 27 33 58 76 70 96 12 19 30 44
42 54 11 10 20 22 20 27 0 16 -81 -71 -195 -212 -39 -47 -106 -128 -150 -180
-44 -52 -85 -102 -92 -110 -40 -51 -129 -156 -135 -158 -5 -2 -8 -8 -8 -12 0
-5 -10 -20 -22 -33 -30 -30 -77 -84 -109 -124 -15 -18 -29 -29 -33 -26 -4 4
-9 -3 -13 -15 -7 -28 -19 -28 -26 -1 -7 25 -32 20 -32 -6 0 -20 -24 -33 -34
-18 -3 5 -23 17 -44 27 -21 9 -43 26 -50 37 -6 10 -22 19 -34 19 -21 0 -83 53
-83 71 0 5 -18 9 -40 9 -33 0 -40 -3 -40 -20 0 -11 -7 -20 -15 -20 -8 0 -20 9
-27 20 -15 23 -38 27 -38 5 0 -8 -5 -15 -11 -15 -15 0 -69 33 -69 42 0 4 -37
9 -82 10 -46 1 -64 3 -40 5 23 2 42 8 42 14 0 5 19 10 43 11 23 1 -1 4 -53 7
l-95 6 -3 48 c-3 42 -5 47 -28 47 -21 0 -24 -4 -24 -40 0 -29 -4 -40 -15 -40
-11 0 -15 11 -15 40 0 36 -2 40 -25 40 -14 0 -25 -4 -25 -9 0 -15 -90 -18
-102 -4 -8 10 -6 13 6 13 10 0 16 9 16 25 0 23 -4 25 -40 25 -36 0 -40 -2 -40
-25 0 -32 -17 -32 -42 0 -16 21 -28 25 -69 25 -37 0 -49 4 -49 15 0 9 -9 15
-22 15 -12 0 -30 7 -40 17 -17 15 -18 15 -18 0 0 -18 -19 -21 -57 -11 -37 10
-26 31 18 38 39 6 41 8 23 21 -27 21 -144 21 -144 0 0 -8 -5 -15 -10 -15 -7 0
-7 6 0 20 6 11 15 20 21 20 5 0 13 8 16 18 6 16 36 58 66 92 8 8 45 58 83 110
37 52 71 97 74 100 7 6 41 51 180 235 63 83 117 152 120 155 3 3 39 50 80 105
41 55 77 102 80 105 11 9 70 99 70 106 0 9 -29 -23 -110 -120 -36 -43 -81 -97
-100 -121 -19 -23 -46 -56 -60 -74 -13 -18 -33 -43 -45 -55 -11 -12 -36 -42
-55 -66 -176 -220 -366 -444 -415 -492 -11 -10 -20 -22 -20 -26 0 -10 -28 -47
-42 -55 -7 -5 -10 -1 -7 11 4 15 -1 17 -40 14 -41 -4 -46 -7 -46 -28 0 -31
-17 -31 -42 1 -11 14 -24 25 -29 25 -6 0 -9 -1035 -9 -2706 0 -1561 4 -2703 9
-2700 5 3 22 3 38 0 30 -6 53 -41 53 -82 0 -13 4 -31 9 -41 7 -13 5 -20 -11
-30 -17 -11 -19 -10 -14 7 5 15 1 19 -24 19 -32 0 -48 8 -36 20 3 4 12 1 18
-5 7 -7 15 -12 19 -12 13 0 18 29 7 36 -7 5 -8 2 -3 -6 6 -10 2 -11 -16 -7
-49 12 -50 8 -47 -254 3 -224 4 -244 21 -247 49 -10 257 -152 257 -176 0 -3
-63 -39 -140 -82 -100 -56 -140 -83 -140 -96 0 -10 2 -18 5 -18 8 0 421 232
511 286 156 95 1488 749 2279 1119 121 56 274 129 340 160 66 32 163 78 215
102 129 61 594 272 760 344 74 33 180 82 235 109 189 94 377 123 650 101 77
-6 203 -16 280 -22 339 -26 916 -114 1380 -210 138 -28 262 -54 278 -57 15 -2
30 -8 33 -13 3 -5 2 -9 -3 -7 -9 2 -120 -20 -143 -29 -17 -7 -6 -5 -180 -28
-105 -13 -175 -16 -315 -12 -99 3 -193 8 -210 11 -70 14 -213 49 -250 61 -22
7 -62 18 -90 25 -27 6 -66 16 -85 21 -49 14 -237 37 -288 35 -23 0 -42 3 -42
7 0 8 -249 3 -315 -6 -16 -2 -63 -7 -103 -12 -39 -4 -75 -11 -78 -16 -3 -5
-10 -7 -15 -4 -5 4 -15 3 -21 -2 -7 -4 -20 -8 -28 -8 -36 -1 -137 -30 -154
-44 -14 -12 -17 -12 -11 -2 6 11 4 13 -9 8 -10 -4 -24 -7 -32 -7 -9 0 -12 -4
-9 -10 3 -5 0 -7 -9 -4 -8 3 -48 -5 -88 -19 -40 -13 -101 -32 -135 -42 -35
-10 -63 -22 -63 -27 0 -4 -9 -8 -20 -8 -11 0 -28 -4 -38 -10 -9 -5 -84 -32
-167 -60 -123 -43 -294 -110 -520 -205 -258 -108 -949 -447 -938 -460 4 -4 3
-5 -4 -1 -11 6 -53 -13 -448 -204 -247 -120 -477 -230 -480 -230 -2 0 -51 -22
-109 -50 -58 -27 -108 -50 -111 -50 -2 0 -68 -31 -147 -68 -79 -38 -161 -77
-183 -87 -22 -10 -185 -90 -363 -177 -178 -87 -325 -158 -328 -158 -3 0 -33
-13 -67 -29 -34 -16 -114 -52 -177 -80 -63 -28 -132 -59 -152 -69 l-38 -17 0
-237 0 -238 2125 0 c1816 0 2125 2 2125 14 0 8 26 36 57 63 32 27 199 171 372
319 173 148 416 354 540 458 124 103 237 198 251 210 93 79 268 225 297 248
19 15 94 80 166 145 165 149 374 324 497 416 52 39 110 84 129 100 39 33 63
24 37 -15 -9 -14 -13 -28 -9 -33 5 -4 3 -5 -3 -2 -6 4 -21 -5 -34 -18 -20 -21
-21 -27 -9 -42 13 -16 12 -17 -3 -5 -15 12 -24 8 -72 -34 -30 -26 -52 -52 -49
-57 3 -6 2 -7 -4 -4 -13 8 -185 -167 -175 -178 4 -5 2 -5 -4 -2 -7 4 -37 -24
-70 -65 -33 -39 -89 -103 -125 -142 -113 -120 -138 -150 -132 -160 4 -5 2 -6
-4 -3 -11 7 -149 -142 -147 -160 1 -7 -2 -11 -6 -8 -4 3 -32 -23 -61 -57 -70
-79 -80 -94 -71 -103 4 -5 2 -5 -4 -2 -11 6 -74 -63 -74 -81 0 -5 -10 -17 -21
-28 -12 -10 -44 -48 -71 -84 -27 -36 -69 -86 -94 -112 -31 -32 -42 -52 -38
-65 4 -12 3 -14 -3 -5 -7 9 -14 6 -30 -12 -12 -13 -19 -27 -16 -30 4 -3 1 -6
-6 -6 -7 0 -9 -5 -5 -12 4 -6 3 -8 -3 -5 -13 8 -86 -67 -76 -78 5 -4 2 -5 -4
-1 -8 4 -17 -2 -25 -18 -6 -14 -15 -26 -19 -26 -4 0 -32 -26 -61 -57 -29 -31
-68 -71 -87 -89 -22 -20 -31 -36 -26 -44 5 -9 4 -11 -3 -6 -7 4 -28 -8 -49
-27 -21 -19 -54 -48 -73 -65 l-35 -31 7203 -1 7202 0 0 5400 0 5400 -4265 0
-4265 0 0 -40 c0 -29 -4 -40 -15 -40 -11 0 -15 11 -15 40 0 62 -16 47 -24 -21z
m2126 -83 c215 -50 675 -250 958 -416 359 -211 477 -290 464 -311 -3 -5 1 -6
9 -3 24 9 166 -142 260 -276 239 -341 385 -615 464 -874 116 -377 108 -873
-27 -1536 -39 -195 -114 -512 -161 -684 l-22 -78 -51 98 c-86 166 -170 264
-372 435 -297 252 -603 422 -814 453 -25 4 -90 16 -145 26 -256 48 -467 30
-692 -60 -299 -119 -572 -389 -739 -729 -97 -198 -147 -374 -166 -588 -24
-269 36 -558 162 -777 59 -103 69 -115 200 -247 281 -282 533 -425 874 -495
334 -68 591 -56 834 40 34 13 62 23 62 21 0 -12 -170 -293 -295 -485 -34 -52
-89 -138 -122 -190 -34 -52 -66 -100 -72 -107 -6 -7 -11 -14 -11 -17 0 -4
-192 -293 -208 -311 -4 -5 -52 -75 -106 -155 -53 -80 -126 -185 -162 -235 -35
-49 -67 -97 -71 -105 -7 -16 -74 -112 -83 -120 -3 -3 -20 -25 -36 -50 -17 -25
-68 -99 -113 -165 -108 -157 -160 -233 -251 -370 -41 -63 -87 -131 -101 -152
-14 -21 -49 -73 -77 -115 -27 -42 -63 -94 -79 -115 -15 -21 -31 -42 -35 -48
-146 -196 -366 -438 -513 -562 -121 -102 -143 -119 -226 -174 -155 -103 -183
-120 -304 -179 -615 -299 -1309 -339 -2360 -133 -225 43 -362 97 -535 208 -63
41 -178 133 -231 184 -70 70 -204 226 -223 260 -5 9 -12 18 -16 21 -12 9 -95
142 -157 250 -199 348 -380 859 -467 1320 -177 930 -38 1863 439 2955 26 59
147 331 170 380 13 28 32 70 43 95 94 212 110 250 104 250 -4 0 -2 4 4 8 7 4
31 48 54 97 23 50 55 116 71 149 16 32 26 62 23 67 -3 5 2 12 10 15 9 3 16 10
16 16 0 9 160 329 237 475 21 39 55 105 77 145 47 89 147 268 235 418 115 197
317 507 486 746 70 99 294 387 366 469 492 566 796 803 1266 988 361 143 758
225 1283 267 80 6 188 15 240 20 149 13 552 5 632 -14z m-2025 -38 c-3 -8 -6
-5 -6 6 -1 11 2 17 5 13 3 -3 4 -12 1 -19z m510 6 c-3 -3 -12 -4 -19 -1 -8 3
-5 6 6 6 11 1 17 -2 13 -5z m-460 -70 c-3 -3 -12 -4 -19 -1 -8 3 -5 6 6 6 11
1 17 -2 13 -5z m38 -14 c3 -6 -1 -7 -9 -4 -18 7 -21 14 -7 14 6 0 13 -4 16
-10z m2 -26 c-3 -3 -12 -4 -19 -1 -8 3 -5 6 6 6 11 1 17 -2 13 -5z m-44 -11
c-7 -2 -19 -2 -25 0 -7 3 -2 5 12 5 14 0 19 -2 13 -5z m2269 -3046 c6 -9 8 -8
8 2 0 11 17 12 88 7 95 -8 191 -24 207 -35 6 -4 30 -9 55 -10 25 -1 47 -6 48
-12 2 -5 8 -7 13 -3 30 18 334 -99 307 -119 -9 -5 -4 -7 13 -3 17 4 31 1 39
-9 7 -8 17 -15 22 -15 17 0 148 -91 143 -99 -2 -5 15 -17 38 -27 23 -10 48
-24 55 -31 8 -7 22 -18 33 -24 11 -5 16 -15 13 -21 -4 -7 -3 -8 4 -4 15 9 60
-35 54 -53 -3 -10 0 -12 12 -8 22 9 76 -31 69 -49 -3 -9 0 -12 9 -9 8 3 21 -2
29 -11 11 -14 11 -18 -6 -30 -22 -16 -12 -19 15 -4 16 9 30 0 90 -60 38 -39
70 -75 70 -80 0 -12 -20 -23 -28 -15 -3 3 0 10 7 14 9 6 10 11 2 15 -6 4 -11
2 -11 -4 0 -7 -7 -10 -14 -7 -10 4 -13 1 -10 -8 8 -20 33 -26 54 -15 17 9 24
4 46 -29 15 -23 23 -45 18 -52 -4 -8 -3 -9 4 -5 7 4 12 1 12 -7 0 -8 7 -18 16
-21 9 -4 14 -13 10 -22 -3 -8 -2 -12 4 -9 14 9 12 -8 -2 -25 -11 -12 -10 -12
4 -2 20 16 32 1 23 -29 -7 -21 11 -52 25 -44 12 7 20 -9 24 -47 2 -18 9 -46
16 -63 7 -16 12 -41 12 -55 0 -14 4 -27 8 -30 5 -3 14 -58 21 -122 10 -94 10
-135 0 -210 -17 -127 -20 -149 -20 -176 -1 -13 -4 -21 -8 -19 -5 3 -9 -9 -10
-25 -1 -17 -8 -36 -14 -44 -6 -8 -8 -14 -4 -14 4 0 2 -6 -4 -13 -6 -8 -8 -17
-4 -20 3 -4 1 -12 -4 -19 -5 -7 -16 -34 -23 -60 -7 -26 -19 -53 -26 -59 -8 -6
-12 -15 -9 -19 2 -4 -7 -31 -21 -60 -20 -42 -28 -50 -36 -39 -7 11 -9 9 -5 -9
3 -12 1 -20 -4 -16 -5 3 -9 0 -9 -6 0 -6 -5 -8 -12 -4 -9 5 -9 2 1 -9 9 -12
10 -17 2 -17 -7 0 -10 -4 -7 -9 3 -5 -1 -11 -9 -15 -8 -3 -15 -13 -15 -22 0
-25 -117 -181 -128 -170 -7 7 -72 -44 -72 -57 0 -6 16 4 35 23 43 41 46 28 4
-18 -17 -20 -34 -30 -42 -26 -6 4 -9 3 -4 -1 9 -11 -71 -94 -87 -91 -6 2 -7 1
-3 -2 4 -2 -6 -18 -24 -34 -25 -24 -33 -28 -41 -17 -7 11 -8 10 -6 -3 2 -9 -1
-17 -5 -17 -5 0 -15 -8 -24 -18 -10 -13 -16 -15 -19 -5 -3 6 -10 9 -16 6 -7
-4 -6 -9 2 -14 7 -4 -8 -19 -41 -41 -35 -22 -54 -29 -57 -21 -2 7 -8 9 -14 6
-7 -4 -6 -9 2 -14 17 -10 -57 -51 -97 -53 -21 -1 -31 -6 -29 -14 6 -14 -21
-26 -29 -13 -4 6 -12 10 -18 10 -8 0 -8 -3 1 -9 10 -6 5 -12 -18 -21 -18 -7
-40 -13 -49 -13 -9 0 -18 -3 -21 -8 -3 -4 -43 -15 -90 -25 -65 -13 -108 -15
-191 -10 -63 4 -110 3 -113 -2 -3 -6 12 -8 37 -5 23 3 53 0 67 -6 20 -9 5 -10
-65 -6 -49 3 -99 7 -110 9 -11 2 -29 4 -40 5 -17 1 -18 3 -5 11 13 8 13 10 -2
10 -9 0 -20 -5 -23 -10 -4 -6 -15 -8 -26 -5 -10 4 -31 8 -47 10 -15 2 -27 4
-27 5 0 1 -17 3 -38 5 -21 2 -53 9 -70 14 -18 6 -58 18 -89 26 -37 10 -58 21
-58 30 0 8 -5 15 -11 15 -5 0 -7 -4 -4 -10 3 -5 -3 -10 -15 -10 -12 0 -18 4
-15 10 4 6 -1 7 -11 3 -13 -5 -16 -3 -11 10 3 9 2 17 -2 17 -5 0 -11 -5 -13
-11 -3 -8 -10 -9 -23 -2 -11 6 -49 24 -85 41 -78 37 -113 61 -90 62 9 0 22 -6
29 -12 11 -11 13 -10 9 2 -3 9 -18 15 -39 15 -28 0 -78 23 -99 45 -3 3 -21 16
-40 29 -76 54 -129 105 -117 114 8 6 6 7 -6 3 -27 -9 -158 121 -137 134 8 5
10 10 5 10 -6 0 -16 -5 -23 -12 -8 -8 -12 -8 -12 -1 0 6 7 16 15 23 9 7 13 15
10 18 -3 3 -12 -3 -19 -14 -14 -19 -15 -18 -41 6 -79 74 -168 225 -215 366
-51 150 -64 240 -64 434 -1 269 40 440 164 695 191 393 485 651 858 751 63 17
157 22 192 11 25 -8 25 -8 2 5 -21 13 -20 14 20 15 24 1 46 -3 50 -10z
m-12911 -530 c-10 -9 -11 -8 -5 6 3 10 9 15 12 12 3 -3 0 -11 -7 -18z m119
-57 c0 -5 -4 -10 -10 -10 -5 0 -10 5 -10 10 0 6 5 10 10 10 6 0 10 -4 10 -10z
m14380 -366 c0 -8 -4 -12 -10 -9 -5 3 -10 13 -10 21 0 8 5 12 10 9 6 -3 10
-13 10 -21z m-12990 -45 c0 -6 -8 -18 -17 -27 -16 -16 -16 -16 -10 1 4 10 7
23 7 28 0 5 5 9 10 9 6 0 10 -5 10 -11z m50 -79 c0 -5 -5 -10 -11 -10 -5 0 -7
5 -4 10 3 6 8 10 11 10 2 0 4 -4 4 -10z m1517 -592 c-3 -8 -6 -5 -6 6 -1 11 2
17 5 13 3 -3 4 -12 1 -19z m-20 -24 c-3 -3 -12 -4 -19 -1 -8 3 -5 6 6 6 11 1
17 -2 13 -5z m1627 -400 c3 -8 2 -12 -4 -9 -6 3 -10 10 -10 16 0 14 7 11 14
-7z m156 -24 c0 -5 -18 -10 -40 -10 -22 0 -40 5 -40 10 0 6 18 10 40 10 22 0
40 -4 40 -10z m745 -100 c-3 -5 -11 -10 -16 -10 -6 0 -7 5 -4 10 3 6 11 10 16
10 6 0 7 -4 4 -10z m20 -30 c3 -6 -1 -7 -9 -4 -18 7 -21 14 -7 14 6 0 13 -4
16 -10z m7770 -1442 c64 -123 83 -305 47 -444 -74 -276 -311 -488 -599 -534
-66 -11 -261 -15 -270 -6 -5 5 122 195 138 206 4 3 15 19 25 37 11 18 31 49
45 70 120 171 317 460 419 612 l123 184 24 -39 c13 -21 35 -60 48 -86z m-8542
-1175 c-7 -2 -19 -2 -25 0 -7 3 -2 5 12 5 14 0 19 -2 13 -5z m804 -29 c-3 -3
-12 -4 -19 -1 -8 3 -5 6 6 6 11 1 17 -2 13 -5z m1218 -52 c-3 -3 -11 0 -18 7
-9 10 -8 11 6 5 10 -3 15 -9 12 -12z m-1032 -3 c7 0 1 -5 -12 -10 -13 -5 -26
-7 -29 -4 -3 3 1 5 9 5 12 0 11 2 -1 11 -12 9 -12 10 3 5 10 -3 24 -6 30 -7z
m-56 -5 c-3 -3 -12 -4 -19 -1 -8 3 -5 6 6 6 11 1 17 -2 13 -5z m1210 -20 c-3
-3 -12 -4 -19 -1 -8 3 -5 6 6 6 11 1 17 -2 13 -5z m-714 -31 c-13 -2 -33 -2
-45 0 -13 2 -3 4 22 4 25 0 35 -2 23 -4z m979 -593 c273 -520 621 -854 1023
-984 83 -27 366 -86 518 -107 48 -7 87 -16 87 -20 0 -9 -157 -153 -265 -243
-82 -69 -147 -125 -200 -171 -16 -14 -40 -35 -52 -45 -61 -52 -189 -93 -346
-110 -221 -25 -483 23 -669 123 -144 77 -258 176 -310 269 -39 71 -76 196 -93
309 -22 154 -20 190 21 314 19 60 44 137 54 170 32 101 131 445 153 528 11 43
21 76 22 75 1 -2 27 -50 57 -108z m-145 48 c-3 -8 -6 -5 -6 6 -1 11 2 17 5 13
3 -3 4 -12 1 -19z m-7080 -394 c-3 -3 -12 -4 -19 -1 -8 3 -5 6 6 6 11 1 17 -2
13 -5z m12 -87 c0 -9 -2 -9 -5 0 -3 7 -13 9 -22 6 -14 -4 -14 -3 -2 5 16 12
30 7 29 -11z m61 5 c0 -4 -6 -14 -12 -21 -11 -10 -8 -11 13 -6 24 6 25 4 21
-24 -4 -31 -22 -44 -22 -16 0 8 -7 15 -15 15 -10 0 -15 10 -15 30 0 20 5 30
15 30 8 0 15 -4 15 -8z m160 -53 c0 -5 -4 -9 -10 -9 -5 0 -10 7 -10 16 0 8 5
12 10 9 6 -3 10 -10 10 -16z m-129 -42 c-10 -9 -11 -8 -5 6 3 10 9 15 12 12 3
-3 0 -11 -7 -18z m59 7 c0 -8 -4 -12 -10 -9 -5 3 -10 10 -10 16 0 5 5 9 10 9
6 0 10 -7 10 -16z m-16 -69 c-4 -8 -10 -13 -15 -10 -4 3 -6 12 -3 20 4 8 10
13 15 10 4 -3 6 -12 3 -20z m11276 -19 c13 -11 34 -30 45 -41 11 -11 72 -59
135 -107 169 -127 266 -222 280 -276 6 -24 14 -50 17 -58 9 -23 -13 -16 -79
24 -35 21 -182 105 -328 187 -146 82 -273 155 -282 163 -16 13 -11 20 65 78
88 68 100 71 147 30z m-11290 -43 c0 -14 4 -22 10 -18 6 4 8 15 5 26 -10 30 2
22 19 -13 9 -17 15 -47 15 -67 -1 -24 -3 -28 -6 -13 -2 12 -8 20 -13 17 -5 -3
-11 -1 -14 4 -4 5 -2 12 4 16 5 3 10 14 10 23 -1 16 -2 16 -14 -1 -12 -16 -15
-13 -28 28 -13 37 -13 43 -2 34 8 -6 14 -22 14 -36z m100 -132 c0 -22 -4 -43
-10 -46 -5 -3 -10 -16 -10 -27 0 -12 -2 -19 -5 -16 -8 8 7 128 16 128 5 0 9
-18 9 -39z m117 -33 c-3 -8 -6 -5 -6 6 -1 11 2 17 5 13 3 -3 4 -12 1 -19z
m-102 -35 c-15 -29 -10 -47 6 -23 8 11 9 10 4 -7 -4 -14 -2 -23 5 -23 6 0 8
-4 5 -10 -4 -6 12 -8 42 -6 39 4 44 3 23 -5 -14 -6 -37 -9 -52 -6 -28 3 -40
-15 -18 -26 6 -3 5 -4 -2 -3 -7 2 -12 15 -11 30 1 21 -2 26 -12 22 -11 -4 -15
2 -15 20 0 29 16 64 30 64 5 0 3 -12 -5 -27z m150 -23 c-3 -5 -11 -10 -16 -10
-6 0 -7 5 -4 10 3 6 11 10 16 10 6 0 7 -4 4 -10z m4575 -714 c0 -2 -8 -10 -17
-17 -16 -13 -17 -12 -4 4 13 16 21 21 21 13z m-249 -253 c13 -16 12 -17 -3 -4
-10 7 -18 15 -18 17 0 8 8 3 21 -13z"/>
<path d="M10290 9414 c-84 -18 -185 -70 -218 -112 -93 -115 -12 -207 293 -334
111 -46 448 -161 860 -294 116 -37 266 -90 335 -117 69 -27 148 -57 175 -67
112 -41 529 -209 615 -248 25 -11 117 -50 205 -87 88 -37 193 -83 233 -101 41
-19 75 -34 77 -34 4 0 18 -6 220 -98 458 -208 835 -375 917 -406 95 -35 241
-76 349 -96 75 -15 236 -13 280 3 59 21 106 64 117 109 42 166 -271 399 -1086
808 -103 51 -432 210 -437 210 -1 0 -41 17 -87 39 -216 100 -501 215 -653 264
-44 14 -321 104 -615 200 -722 236 -758 248 -810 257 -25 4 -101 24 -170 44
-241 71 -452 92 -600 60z m230 -35 c41 -5 102 -12 135 -15 32 -3 73 -11 90
-18 16 -7 48 -16 70 -20 21 -4 53 -15 70 -24 16 -9 37 -16 45 -16 26 -1 110
-30 110 -38 0 -12 72 -22 79 -10 4 7 16 5 36 -4 l30 -14 -35 6 c-26 4 -31 3
-20 -5 13 -10 13 -11 0 -11 -12 -1 -11 -3 3 -11 22 -13 24 -79 2 -79 -11 0
-15 11 -15 40 0 31 -4 40 -17 41 -15 0 -15 2 2 9 13 6 15 9 5 9 -8 0 -22 -4
-30 -9 -10 -6 -11 -10 -2 -10 8 0 12 -23 12 -80 0 -64 3 -80 15 -80 12 0 15
-18 16 -97 1 -54 3 -91 6 -81 2 9 11 19 19 22 12 5 15 -3 12 -41 -3 -40 -7
-48 -28 -55 -16 -5 -10 -6 20 -3 32 4 41 2 30 -5 -13 -9 -13 -10 1 -10 8 0 23
-6 34 -13 17 -13 17 -14 -4 -20 -17 -4 -21 -2 -17 8 4 11 -2 13 -24 8 -19 -3
-30 -1 -30 6 0 6 -15 11 -32 11 -22 0 -29 3 -20 9 11 7 11 9 -2 14 -8 3 -17 1
-19 -6 -6 -18 -18 -2 -27 35 -7 31 -8 31 -9 6 -1 -15 -5 -30 -11 -33 -16 -10
-48 13 -52 37 -2 12 -10 24 -18 26 -13 4 -13 3 -2 -11 11 -13 10 -15 -9 -10
-15 4 -20 3 -15 -5 10 -17 -13 -15 -48 3 -16 8 -49 18 -73 21 -83 9 -504 166
-614 228 -156 88 -157 177 -2 251 100 48 201 61 333 44z m580 -129 c13 -9 13
-10 0 -10 -8 0 -22 5 -30 10 -13 9 -13 10 0 10 8 0 22 -5 30 -10z m83 -47 c-7
-2 -19 -2 -25 0 -7 3 -2 5 12 5 14 0 19 -2 13 -5z m144 -29 c-3 -3 -12 -4 -19
-1 -8 3 -5 6 6 6 11 1 17 -2 13 -5z m13 -24 c0 -5 -7 -10 -16 -10 -8 0 -12 5
-9 10 3 6 10 10 16 10 5 0 9 -4 9 -10z m-143 -222 c-2 -24 -4 -7 -4 37 0 44 2
63 4 43 2 -21 2 -57 0 -80z m860 6 c-3 -3 -12 -4 -19 -1 -8 3 -5 6 6 6 11 1
17 -2 13 -5z m-853 -129 c5 -22 4 -26 -4 -15 -5 8 -10 24 -10 34 0 26 6 18 14
-19z m76 -51 c0 -12 -4 -12 -20 -2 -11 7 -20 16 -20 19 0 4 9 5 20 2 11 -3 20
-12 20 -19z m15 -52 c-3 -3 -11 0 -18 7 -9 10 -8 11 6 5 10 -3 15 -9 12 -12z
m60 -2 c-11 -5 -27 -9 -35 -9 -9 0 -8 4 5 9 11 5 27 9 35 9 9 0 8 -4 -5 -9z
m98 -37 c-7 -2 -19 -2 -25 0 -7 3 -2 5 12 5 14 0 19 -2 13 -5z m182 -73 c3 -5
-4 -6 -15 -3 -11 3 -22 9 -25 13 -3 5 4 6 15 3 11 -3 22 -9 25 -13z"/>
<path d="M10780 9310 c-24 -8 -23 -8 8 -9 20 -1 31 3 27 9 -3 6 -7 10 -8 9 -1
-1 -13 -5 -27 -9z"/>
<path d="M10836 9294 c-6 -15 -1 -16 28 -5 19 7 19 8 -1 13 -14 4 -24 0 -27
-8z"/>
<path d="M10970 9240 c-8 -5 -12 -11 -10 -13 8 -8 70 5 70 14 0 12 -41 11 -60
-1z"/>
<path d="M11003 9217 c-42 -10 -43 -10 -43 -53 l0 -44 41 0 40 0 -3 38 c-2 23
-8 36 -15 35 -7 -2 -13 2 -13 7 0 6 9 10 19 10 11 0 23 5 26 10 7 11 5 11 -52
-3z"/>
<path d="M10605 8980 c3 -5 8 -10 11 -10 2 0 4 5 4 10 0 6 -5 10 -11 10 -5 0
-7 -4 -4 -10z"/>
<path d="M10665 8951 c-6 -11 13 -26 22 -17 4 3 0 6 -8 6 -11 0 -11 2 1 10 9
6 10 10 3 10 -6 0 -14 -4 -18 -9z"/>
<path d="M10730 8930 c0 -5 7 -10 16 -10 8 0 12 5 9 10 -3 6 -10 10 -16 10 -5
0 -9 -4 -9 -10z"/>
<path d="M10775 8910 c3 -5 8 -10 11 -10 2 0 4 5 4 10 0 6 -5 10 -11 10 -5 0
-7 -4 -4 -10z"/>
<path d="M10743 8890 c14 -11 28 -20 32 -20 4 0 -4 9 -18 20 -14 11 -28 20
-32 20 -4 0 4 -9 18 -20z"/>
<path d="M10948 8873 c7 -3 16 -2 19 1 4 3 -2 6 -13 5 -11 0 -14 -3 -6 -6z"/>
<path d="M10898 8863 c7 -3 16 -2 19 1 4 3 -2 6 -13 5 -11 0 -14 -3 -6 -6z"/>
<path d="M10888 8843 c7 -3 16 -2 19 1 4 3 -2 6 -13 5 -11 0 -14 -3 -6 -6z"/>
<path d="M9805 8730 c-136 -24 -210 -43 -291 -75 -360 -144 -659 -421 -818
-760 -77 -163 -116 -340 -123 -556 -13 -373 100 -661 355 -900 331 -310 772
-533 1177 -594 218 -33 404 -7 595 82 54 25 194 112 240 149 46 37 197 190
237 239 160 198 298 502 349 765 22 116 25 393 5 485 -73 338 -197 523 -529
789 -253 201 -476 317 -682 352 -290 50 -349 53 -515 24z m480 -58 c149 -31
247 -65 355 -125 83 -46 226 -143 305 -206 67 -53 79 -63 135 -111 58 -50 158
-149 191 -191 92 -114 167 -273 205 -434 15 -64 19 -118 19 -270 -1 -173 -3
-201 -29 -310 -15 -66 -33 -126 -38 -132 -6 -7 -8 -13 -5 -13 8 0 -41 -131
-55 -147 -6 -7 -7 -13 -4 -13 16 0 -93 -192 -181 -320 -28 -40 -98 -123 -150
-176 -230 -235 -528 -365 -798 -350 -305 17 -661 145 -1006 361 -121 76 -325
262 -418 380 -115 145 -193 354 -222 586 -16 137 7 320 67 512 35 112 132 307
196 392 64 86 252 276 334 338 98 73 257 156 384 200 216 74 450 84 715 29z"/>
<path d="M9057 7673 c-4 -3 -7 -17 -7 -30 0 -18 -6 -23 -24 -23 -36 0 -51 -24
-37 -58 7 -16 11 -33 9 -39 -2 -6 7 -25 20 -42 23 -31 55 -41 68 -20 4 7 11 2
18 -13 7 -14 22 -24 39 -26 23 -3 28 1 33 25 5 23 11 29 32 28 23 0 27 5 30
33 2 18 -1 32 -7 32 -22 0 -10 19 24 40 61 38 36 107 -27 74 -25 -13 -29 -13
-34 0 -8 21 -42 30 -59 16 -9 -7 -15 -8 -20 0 -7 11 -48 14 -58 3z"/>
<path d="M8016 6729 c-30 -150 30 -375 147 -550 173 -260 551 -534 917 -663
82 -29 213 -46 224 -28 8 13 -5 17 -107 36 -239 46 -615 257 -836 471 -122
118 -178 190 -235 300 -62 122 -86 220 -86 357 0 105 -11 141 -24 77z"/>
<path d="M11512 5915 c-6 -14 -18 -55 -27 -92 -82 -364 -311 -970 -475 -1258
-69 -121 -114 -182 -191 -256 -69 -68 -181 -159 -195 -159 -4 0 -17 -9 -29
-20 -33 -31 -112 -37 -152 -11 -71 45 -117 188 -116 366 0 177 37 361 128 638
29 90 30 97 11 97 -27 0 -102 -226 -145 -435 -66 -326 -37 -569 83 -684 32
-31 41 -34 98 -35 94 -1 180 49 335 195 152 144 280 371 448 794 116 295 248
725 257 839 3 46 -13 58 -30 21z"/>
<path d="M7680 4695 c-185 -56 -377 -179 -482 -309 -110 -137 -162 -285 -162
-456 0 -168 55 -325 162 -465 64 -85 265 -285 285 -285 29 0 19 25 -30 72 -67
63 -202 212 -242 267 -104 142 -158 352 -132 509 15 86 59 206 98 267 121 186
343 336 567 381 151 31 384 5 555 -63 182 -71 264 -125 393 -256 53 -54 99
-94 102 -88 12 19 -26 75 -98 147 -101 101 -220 173 -387 234 -137 51 -202 62
-379 66 -154 4 -171 3 -250 -21z"/>
<path d="M11774 4623 c12 -47 76 -134 171 -229 194 -194 476 -332 797 -390
309 -55 597 -3 741 134 66 64 40 86 -35 29 -92 -70 -160 -100 -286 -126 -68
-14 -272 -14 -365 0 -394 59 -769 266 -935 517 -31 47 -73 92 -85 92 -5 0 -6
-12 -3 -27z"/>
<path d="M7925 4331 c-86 -14 -138 -31 -200 -66 -82 -46 -142 -108 -179 -185
-28 -59 -31 -74 -30 -155 1 -75 6 -103 31 -167 43 -110 128 -230 251 -359 88
-92 308 -296 388 -359 10 -8 39 -31 64 -50 25 -19 47 -37 50 -40 18 -20 223
-165 375 -267 290 -193 292 -194 565 -397 52 -39 100 -75 105 -79 6 -4 71 -54
146 -110 74 -56 199 -151 277 -210 254 -193 407 -277 600 -328 276 -75 575
-22 727 126 112 109 130 298 41 449 -68 116 -235 233 -436 305 -102 37 -263
108 -415 183 -201 100 -364 203 -589 371 -48 36 -258 207 -301 245 -211 188
-290 273 -455 492 -290 385 -447 516 -695 579 -92 23 -246 34 -320 22z m244
-53 c58 -8 78 -14 65 -19 -21 -8 -24 -8 51 -15 31 -2 130 -43 108 -44 -7 0
-13 -5 -13 -11 0 -6 9 -9 20 -6 11 3 20 1 20 -4 0 -4 6 -6 14 -3 8 3 16 2 19
-3 3 -4 -20 -9 -51 -10 -38 -1 -51 1 -42 7 9 6 10 10 3 10 -25 0 -43 -13 -43
-31 0 -15 -7 -19 -40 -19 -22 0 -40 -4 -40 -10 0 -5 -18 -10 -40 -10 -29 0
-40 -4 -40 -15 0 -8 -5 -15 -11 -15 -6 0 -20 -11 -31 -25 -28 -35 -38 -31 -38
15 0 40 0 40 -39 40 -35 0 -40 -3 -46 -28 -3 -15 -4 -57 -1 -92 3 -47 2 -60
-5 -47 -6 9 -7 27 -4 38 4 12 3 19 -1 16 -5 -3 -8 16 -7 41 2 42 1 44 -7 17
-8 -27 -9 -26 -5 10 3 22 5 48 5 58 0 10 4 16 9 13 10 -6 25 43 16 52 -3 3 -5
-2 -5 -11 0 -9 -4 -17 -9 -17 -10 0 18 98 34 117 13 16 49 16 154 1z m326
-149 c-4 -6 2 -13 14 -16 12 -3 21 -10 21 -15 0 -6 6 -8 13 -5 8 3 14 -1 14
-9 0 -15 -9 -18 -21 -6 -4 4 -17 7 -29 7 -16 0 -22 7 -24 28 -1 15 3 27 8 27
6 0 7 -5 4 -11z m23 -77 c2 -7 -2 -10 -12 -6 -9 3 -16 11 -16 16 0 13 23 5 28
-10z m-904 -25 c14 -8 23 -17 19 -20 -3 -4 3 -7 15 -7 24 0 91 -66 92 -90 0
-8 7 -24 15 -34 19 -24 11 -36 -23 -35 -24 2 -24 2 -4 6 25 5 29 21 7 29 -8 4
-15 15 -15 25 0 10 -4 19 -10 19 -5 0 -10 -5 -10 -11 0 -5 -5 -7 -10 -4 -6 4
-8 10 -6 14 3 4 -10 5 -28 3 -36 -4 -46 11 -46 71 0 15 -4 27 -8 27 -4 0 -7
-39 -6 -87 3 -99 -7 -130 -19 -63 -12 64 -15 140 -5 140 4 0 8 7 8 15 0 18 1
18 34 2z m632 -126 c-3 -5 -17 -11 -32 -14 -29 -5 -20 9 11 16 11 3 21 5 23 6
2 0 1 -3 -2 -8z m34 -5 c0 -3 -4 -8 -10 -11 -5 -3 -10 -1 -10 4 0 6 5 11 10
11 6 0 10 -2 10 -4z m-584 -42 c-19 -18 -21 -11 -4 19 7 14 13 17 15 10 3 -7
-3 -20 -11 -29z m-96 -49 c0 -8 -4 -15 -10 -15 -5 0 -7 7 -4 15 4 8 8 15 10
15 2 0 4 -7 4 -15z m150 -75 c0 -16 -4 -30 -9 -30 -4 0 -6 12 -3 27 4 21 2 25
-12 20 -9 -4 -16 -2 -16 3 0 6 9 10 20 10 16 0 20 -7 20 -30z m-65 -10 c-4
-12 -9 -19 -12 -17 -3 3 -2 15 2 27 4 12 9 19 12 17 3 -3 2 -15 -2 -27z m-41
-11 c-6 -11 -24 -2 -24 11 0 5 7 7 15 4 8 -4 12 -10 9 -15z m14 -54 c-3 -3 -9
2 -12 12 -6 14 -5 15 5 6 7 -7 10 -15 7 -18z m48 -23 c-18 -16 -18 -16 -6 6 6
13 14 21 18 18 3 -4 -2 -14 -12 -24z m304 -2 c0 -5 -10 -10 -22 -9 -22 0 -22
1 -3 9 11 5 21 9 23 9 1 1 2 -3 2 -9z"/>
<path d="M8035 4270 c4 -6 11 -8 16 -5 14 9 11 15 -7 15 -8 0 -12 -5 -9 -10z"/>
<path d="M8128 4263 c12 -2 30 -2 40 0 9 3 -1 5 -23 4 -22 0 -30 -2 -17 -4z"/>
<path d="M7582 3950 c0 -14 2 -19 5 -12 2 6 2 18 0 25 -3 6 -5 1 -5 -13z"/>
<path d="M7690 3945 c7 -9 15 -13 17 -11 7 7 -7 26 -19 26 -6 0 -6 -6 2 -15z"/>
<path d="M11022 2558 c2 -7 42 -32 88 -56 142 -73 223 -146 299 -271 91 -150
121 -342 80 -521 -16 -66 -60 -189 -84 -232 -81 -143 -223 -239 -435 -296 -80
-21 -118 -25 -245 -26 -139 -1 -156 1 -235 27 -153 51 -199 70 -417 173 -99
47 -137 55 -131 28 9 -46 446 -229 640 -268 101 -21 152 -20 290 3 204 35 333
87 436 176 104 89 159 180 208 340 25 81 28 105 28 240 1 128 -2 160 -22 220
-43 137 -136 271 -251 365 -84 68 -261 137 -249 98z"/>
<path d="M13168 7443 c7 -3 16 -2 19 1 4 3 -2 6 -13 5 -11 0 -14 -3 -6 -6z"/>
<path d="M12816 7423 c-6 -14 -5 -15 5 -6 7 7 10 15 7 18 -3 3 -9 -2 -12 -12z"/>
<path d="M13460 7396 c0 -2 7 -6 15 -10 8 -3 15 -1 15 4 0 6 -7 10 -15 10 -8
0 -15 -2 -15 -4z"/>
<path d="M12741 7381 c-9 -6 -10 -11 -2 -15 6 -4 11 -3 11 3 0 5 8 12 18 14
12 3 13 5 2 6 -8 0 -21 -3 -29 -8z"/>
<path d="M12825 7380 c3 -5 8 -10 11 -10 2 0 4 5 4 10 0 6 -5 10 -11 10 -5 0
-7 -4 -4 -10z"/>
<path d="M13508 7373 c7 -3 16 -2 19 1 4 3 -2 6 -13 5 -11 0 -14 -3 -6 -6z"/>
<path d="M13632 7334 c10 -10 20 -16 22 -13 3 3 -5 11 -17 18 -21 13 -21 12
-5 -5z"/>
<path d="M12650 7306 c0 -15 37 -32 47 -22 4 3 -1 6 -10 6 -9 0 -17 7 -17 15
0 8 -4 15 -10 15 -5 0 -10 -6 -10 -14z"/>
<path d="M13700 7290 c-18 -12 -2 -12 25 0 13 6 15 9 5 9 -8 0 -22 -4 -30 -9z"/>
<path d="M12585 7259 c-11 -17 1 -21 15 -4 8 9 8 15 2 15 -6 0 -14 -5 -17 -11z"/>
<path d="M13820 7240 c19 -13 30 -13 30 0 0 6 -10 10 -22 10 -19 0 -20 -2 -8
-10z"/>
<path d="M13866 7218 c5 -8 2 -9 -12 -4 -10 4 -15 4 -11 -1 5 -4 22 -8 38 -9
27 -2 28 0 12 12 -22 17 -37 18 -27 2z"/>
<path d="M13920 7185 c0 -8 7 -15 16 -15 14 0 14 3 4 15 -7 8 -14 15 -16 15
-2 0 -4 -7 -4 -15z"/>
<path d="M12500 7180 c0 -5 5 -10 10 -10 6 0 10 5 10 10 0 6 -4 10 -10 10 -5
0 -10 -4 -10 -10z"/>
<path d="M12450 7135 c-11 -13 -10 -14 4 -9 9 3 16 10 16 15 0 13 -6 11 -20
-6z"/>
<path d="M13938 7133 c7 -3 16 -2 19 1 4 3 -2 6 -13 5 -11 0 -14 -3 -6 -6z"/>
<path d="M14030 7101 c0 -9 30 -24 36 -18 2 1 -6 8 -16 15 -11 7 -20 8 -20 3z"/>
<path d="M14022 7064 c10 -10 20 -16 22 -13 3 3 -5 11 -17 18 -21 13 -21 12
-5 -5z"/>
<path d="M14190 6980 c0 -5 5 -10 11 -10 5 0 7 5 4 10 -3 6 -8 10 -11 10 -2 0
-4 -4 -4 -10z"/>
<path d="M12226 6867 c5 -14 2 -16 -12 -10 -18 7 -18 6 -1 -11 10 -10 16 -25
13 -33 -3 -8 -2 -12 3 -9 10 7 9 61 -2 73 -5 4 -5 0 -1 -10z"/>
<path d="M14321 6857 c2 -1 13 -9 24 -17 19 -14 19 -14 6 3 -7 9 -18 17 -24
17 -6 0 -8 -1 -6 -3z"/>
<path d="M12184 6829 c-3 -6 -2 -15 3 -20 5 -5 9 -1 9 11 0 23 -2 24 -12 9z"/>
<path d="M14400 6805 c0 -5 5 -17 10 -25 5 -8 10 -10 10 -5 0 6 -5 17 -10 25
-5 8 -10 11 -10 5z"/>
<path d="M14490 6695 c0 -5 5 -17 10 -25 5 -8 10 -10 10 -5 0 6 -5 17 -10 25
-5 8 -10 11 -10 5z"/>
<path d="M12071 6614 c0 -11 3 -14 6 -6 3 7 2 16 -1 19 -3 4 -6 -2 -5 -13z"/>
<path d="M12060 6569 c0 -5 -6 -7 -12 -3 -7 4 -9 3 -5 -1 13 -15 36 -14 30 1
-6 17 -13 18 -13 3z"/>
<path d="M14652 6300 c0 -14 2 -19 5 -12 2 6 2 18 0 25 -3 6 -5 1 -5 -13z"/>
<path d="M14661 6254 c0 -11 3 -14 6 -6 3 7 2 16 -1 19 -3 4 -6 -2 -5 -13z"/>
<path d="M14661 6104 c0 -11 3 -14 6 -6 3 7 2 16 -1 19 -3 4 -6 -2 -5 -13z"/>
<path d="M14667 5851 c-4 -17 -3 -21 5 -13 5 5 8 16 6 23 -3 8 -7 3 -11 -10z"/>
<path d="M14651 5804 c0 -11 3 -14 6 -6 3 7 2 16 -1 19 -3 4 -6 -2 -5 -13z"/>
<path d="M13900 5670 l-25 -8 28 -1 c15 -1 27 4 27 9 0 6 -1 10 -2 9 -2 -1
-14 -5 -28 -9z"/>
<path d="M14000 5670 c8 -5 22 -9 30 -9 10 0 8 3 -5 9 -27 12 -43 12 -25 0z"/>
<path d="M14050 5650 c0 -5 4 -10 9 -10 6 0 13 5 16 10 3 6 -1 10 -9 10 -9 0
-16 -4 -16 -10z"/>
<path d="M13900 5640 c-9 -6 -10 -10 -3 -10 6 0 15 5 18 10 8 12 4 12 -15 0z"/>
<path d="M13938 5633 c7 -3 16 -2 19 1 4 3 -2 6 -13 5 -11 0 -14 -3 -6 -6z"/>
<path d="M14000 5633 c-8 -3 -19 -12 -23 -20 -6 -9 -13 -10 -27 -3 -35 19 -59
12 -65 -17 -3 -16 -10 -41 -15 -57 -5 -16 -7 -33 -3 -39 3 -5 7 -19 8 -31 1
-11 3 -24 4 -27 0 -3 12 -11 25 -17 18 -8 30 -7 50 3 14 8 26 9 26 4 0 -17 43
-27 68 -16 12 6 22 14 22 18 0 4 11 9 24 13 19 5 24 14 29 49 3 24 4 54 1 68
-4 21 -3 22 5 4 6 -12 10 -14 10 -6 1 19 -42 57 -71 63 -12 3 -30 8 -38 11 -8
3 -22 3 -30 0z"/>
<path d="M13860 5604 c0 -8 -4 -13 -9 -10 -5 4 -7 -3 -4 -14 9 -34 19 -31 20
6 1 19 -1 34 -3 34 -2 0 -4 -7 -4 -16z"/>
<path d="M14152 5580 c0 -14 2 -19 5 -12 2 6 2 18 0 25 -3 6 -5 1 -5 -13z"/>
<path d="M11981 5564 c0 -11 3 -14 6 -6 3 7 2 16 -1 19 -3 4 -6 -2 -5 -13z"/>
<path d="M11944 5535 c1 -22 18 -24 24 -3 3 10 1 9 -6 -1 -8 -12 -11 -11 -15
5 -4 17 -4 17 -3 -1z"/>
<path d="M13843 5531 c0 -11 5 -18 9 -15 4 3 5 11 1 19 -7 21 -12 19 -10 -4z"/>
<path d="M11980 5475 c0 -5 5 -17 10 -25 5 -8 10 -10 10 -5 0 6 -5 17 -10 25
-5 8 -10 11 -10 5z"/>
<path d="M13847 5460 c-3 -11 -1 -20 4 -20 5 0 9 9 9 20 0 11 -2 20 -4 20 -2
0 -6 -9 -9 -20z"/>
<path d="M11972 5430 c0 -14 2 -19 5 -12 2 6 2 18 0 25 -3 6 -5 1 -5 -13z"/>
<path d="M14516 5425 c4 -8 11 -15 16 -15 6 0 5 6 -2 15 -7 8 -14 15 -16 15
-2 0 -1 -7 2 -15z"/>
<path d="M11991 5414 c0 -11 3 -14 6 -6 3 7 2 16 -1 19 -3 4 -6 -2 -5 -13z"/>
<path d="M13945 5400 c-3 -5 1 -10 9 -10 9 0 16 -4 16 -10 0 -5 5 -10 10 -10
6 0 5 8 -2 20 -14 22 -24 25 -33 10z"/>
<path d="M14055 5400 c-16 -7 -17 -9 -3 -9 9 -1 20 4 23 9 7 11 7 11 -20 0z"/>
<path d="M13888 5373 c7 -3 16 -2 19 1 4 3 -2 6 -13 5 -11 0 -14 -3 -6 -6z"/>
<path d="M12021 5344 c0 -11 3 -14 6 -6 3 7 2 16 -1 19 -3 4 -6 -2 -5 -13z"/>
<path d="M12026 5277 c3 -10 9 -15 12 -12 3 3 0 11 -7 18 -10 9 -11 8 -5 -6z"/>
<path d="M14405 5270 c-3 -5 -2 -17 3 -26 6 -11 11 -13 16 -5 4 6 2 11 -4 11
-7 0 -10 7 -6 15 6 17 0 20 -9 5z"/>
<path d="M12057 5239 c4 -13 8 -18 11 -10 2 7 -1 18 -6 23 -8 8 -9 4 -5 -13z"/>
<path d="M14370 5189 c0 -5 5 -7 10 -4 6 3 10 8 10 11 0 2 -4 4 -10 4 -5 0
-10 -5 -10 -11z"/>
<path d="M12140 5110 c-8 -5 -10 -10 -5 -10 6 0 17 5 25 10 8 5 11 10 5 10 -5
0 -17 -5 -25 -10z"/>
<path d="M12184 5071 c20 -22 26 -25 26 -13 0 4 -10 13 -22 21 -23 14 -23 14
-4 -8z"/>
<path d="M12275 5000 c3 -5 8 -10 11 -10 2 0 4 5 4 10 0 6 -5 10 -11 10 -5 0
-7 -4 -4 -10z"/>
<path d="M12344 4935 c8 -8 20 -15 27 -15 7 0 4 6 -7 15 -25 19 -40 19 -20 0z"/>
<path d="M14100 4941 c0 -10 19 -25 25 -20 1 2 -3 10 -11 17 -8 7 -14 8 -14 3z"/>
<path d="M12481 4866 c12 -10 60 -16 54 -6 -3 5 -18 10 -32 10 -15 0 -24 -2
-22 -4z"/>
<path d="M12551 4834 c0 -11 3 -14 6 -6 3 7 2 16 -1 19 -3 4 -6 -2 -5 -13z"/>
<path d="M12600 4785 c-14 -8 -20 -14 -15 -14 6 0 21 6 35 14 14 8 21 14 15
14 -5 0 -21 -6 -35 -14z"/>
<path d="M12675 4780 c3 -5 10 -10 16 -10 5 0 9 5 9 10 0 6 -7 10 -16 10 -8 0
-12 -4 -9 -10z"/>
<path d="M12633 4770 c2 -8 12 -16 23 -17 13 -2 15 -1 4 4 -8 3 -19 11 -23 17
-6 7 -7 6 -4 -4z"/>
<path d="M13845 4740 c-3 -5 -2 -10 4 -10 5 0 13 5 16 10 3 6 2 10 -4 10 -5 0
-13 -4 -16 -10z"/>
<path d="M12795 4711 c-6 -11 13 -26 22 -17 4 3 0 6 -8 6 -11 0 -11 2 1 10 9
6 10 10 3 10 -6 0 -14 -4 -18 -9z"/>
<path d="M13690 4680 c-18 -12 -2 -12 25 0 13 6 15 9 5 9 -8 0 -22 -4 -30 -9z"/>
<path d="M12908 4673 c7 -3 16 -2 19 1 4 3 -2 6 -13 5 -11 0 -14 -3 -6 -6z"/>
<path d="M12945 4660 c-3 -5 -1 -10 4 -10 6 0 11 5 11 10 0 6 -2 10 -4 10 -3
0 -8 -4 -11 -10z"/>
<path d="M13528 4633 c6 -2 18 -2 25 0 6 3 1 5 -13 5 -14 0 -19 -2 -12 -5z"/>
<path d="M13423 4623 c9 -2 25 -2 35 0 9 3 1 5 -18 5 -19 0 -27 -2 -17 -5z"/>
<path d="M10560 10680 c0 -29 4 -40 15 -40 11 0 15 11 15 40 0 29 -4 40 -15
40 -11 0 -15 -11 -15 -40z"/>
<path d="M8560 10600 c0 -5 9 -10 21 -10 11 0 17 5 14 10 -3 6 -13 10 -21 10
-8 0 -14 -4 -14 -10z"/>
<path d="M10608 10469 c13 -5 30 -5 38 -1 9 5 1 8 -23 9 -33 1 -35 0 -15 -8z"/>
<path d="M10548 10463 c7 -3 16 -2 19 1 4 3 -2 6 -13 5 -11 0 -14 -3 -6 -6z"/>
<path d="M8080 10450 c0 -5 4 -10 9 -10 6 0 13 5 16 10 3 6 -1 10 -9 10 -9 0
-16 -4 -16 -10z"/>
<path d="M10570 10450 c-18 -12 -2 -12 25 0 13 6 15 9 5 9 -8 0 -22 -4 -30 -9z"/>
<path d="M10490 10440 c20 -13 53 -13 45 0 -3 6 -18 10 -33 10 -21 0 -24 -2
-12 -10z"/>
<path d="M10480 10414 c0 -8 5 -12 10 -9 6 3 10 10 10 16 0 5 -4 9 -10 9 -5 0
-10 -7 -10 -16z"/>
<path d="M8550 10390 c-8 -5 -10 -10 -5 -10 6 0 17 5 25 10 8 5 11 10 5 10 -5
0 -17 -5 -25 -10z"/>
<path d="M10410 10390 c8 -5 20 -10 25 -10 6 0 3 5 -5 10 -8 5 -19 10 -25 10
-5 0 -3 -5 5 -10z"/>
<path d="M8600 10380 c0 -5 5 -10 11 -10 5 0 7 5 4 10 -3 6 -8 10 -11 10 -2 0
-4 -4 -4 -10z"/>
<path d="M10368 10367 c-16 -6 -28 -15 -28 -19 0 -7 55 16 69 28 7 7 -13 2
-41 -9z"/>
<path d="M1037 8023 c-4 -3 -7 -11 -7 -17 0 -6 5 -5 12 2 6 6 9 14 7 17 -3 3
-9 2 -12 -2z"/>
<path d="M0 7050 c0 -5 7 -10 15 -10 8 0 15 5 15 10 0 6 -7 10 -15 10 -8 0
-15 -4 -15 -10z"/>
<path d="M7319 6921 c-16 -7 -28 -16 -25 -18 2 -3 14 1 27 7 12 7 36 14 53 17
43 7 47 14 7 11 -18 -1 -46 -9 -62 -17z"/>
<path d="M7230 6880 c-13 -11 -28 -20 -33 -20 -6 0 -8 -2 -5 -5 7 -7 58 16 58
26 0 4 8 10 18 12 14 4 14 5 1 6 -9 0 -26 -8 -39 -19z"/>
<path d="M7029 6713 c-32 -39 -44 -57 -32 -50 13 8 57 67 50 67 -2 0 -10 -8
-18 -17z"/>
<path d="M5985 6590 c10 -11 20 -20 23 -20 3 0 -3 9 -13 20 -10 11 -20 20 -23
20 -3 0 3 -9 13 -20z"/>
<path d="M6935 6579 c-4 -6 -5 -12 -2 -15 2 -3 7 2 10 11 7 17 1 20 -8 4z"/>
<path d="M4807 6569 c7 -7 15 -10 18 -7 3 3 -2 9 -12 12 -14 6 -15 5 -6 -5z"/>
<path d="M4915 6560 c3 -5 8 -10 11 -10 2 0 4 5 4 10 0 6 -5 10 -11 10 -5 0
-7 -4 -4 -10z"/>
<path d="M6097 6445 c10 -13 22 -25 27 -25 5 0 -1 11 -14 25 -30 32 -36 32
-13 0z"/>
<path d="M6100 6390 c-9 -6 -10 -10 -3 -10 6 0 15 5 18 10 8 12 4 12 -15 0z"/>
<path d="M6861 6334 c0 -11 3 -14 6 -6 3 7 2 16 -1 19 -3 4 -6 -2 -5 -13z"/>
<path d="M6843 6305 c0 -22 2 -30 4 -17 2 12 2 30 0 40 -3 9 -5 -1 -4 -23z"/>
<path d="M6846 6244 c-7 -19 -8 -160 -1 -152 4 4 13 168 9 168 -1 0 -5 -7 -8
-16z"/>
<path d="M5540 5320 c0 -5 5 -10 11 -10 5 0 7 5 4 10 -3 6 -8 10 -11 10 -2 0
-4 -4 -4 -10z"/>
<path d="M5318 5303 c23 -2 61 -2 85 0 23 2 4 4 -43 4 -47 0 -66 -2 -42 -4z"/>
<path d="M5570 5300 c0 -5 -7 -10 -17 -10 -9 0 -14 -2 -11 -5 8 -9 58 6 58 16
0 5 -7 9 -15 9 -8 0 -15 -4 -15 -10z"/>
<path d="M4435 10 c-3 -5 3 -10 15 -10 12 0 18 5 15 10 -3 6 -10 10 -15 10 -5
0 -12 -4 -15 -10z"/>
</g>
</svg>
