<?xml version="1.0" standalone="no"?>
<!DOCTYPE svg PUBLIC "-//W3C//DTD SVG 20010904//EN"
 "http://www.w3.org/TR/2001/REC-SVG-20010904/DTD/svg10.dtd">
<svg version="1.0" xmlns="http://www.w3.org/2000/svg"
 width="512.000000pt" height="512.000000pt" viewBox="0 0 512.000000 512.000000"
 preserveAspectRatio="xMidYMid meet">

<g transform="translate(0.000000,512.000000) scale(0.100000,-0.100000)"
fill="#000000" stroke="none">
<path d="M4556 4374 c13 -42 14 -287 14 -1813 l0 -1764 -26 -57 c-31 -69 -92
-131 -159 -162 -49 -22 -60 -23 -472 -29 -233 -3 -426 -9 -430 -13 -4 -4 188
-6 427 -4 432 3 435 3 487 27 62 28 136 103 166 169 l22 47 3 1754 c2 1560 1
1761 -13 1815 -9 34 -20 65 -25 70 -5 5 -2 -13 6 -40z"/>
<path d="M2975 2592 c-230 -77 -355 -193 -355 -329 0 -29 -8 -65 -20 -87 -16
-33 -18 -51 -13 -120 3 -44 12 -92 19 -106 13 -25 13 -25 14 10 1 102 72 259
155 345 69 71 138 97 270 103 245 10 416 -58 499 -201 26 -45 76 -213 76 -258
0 -15 9 -37 20 -50 17 -21 21 -22 30 -9 6 8 8 29 5 46 -3 18 0 44 6 58 10 21
9 33 -4 63 -9 21 -18 76 -20 123 -3 71 -9 95 -36 148 -53 104 -137 183 -259
242 -148 72 -228 76 -387 22z"/>
<path d="M1946 932 c-3 -10 -8 -39 -11 -67 -7 -54 -59 -288 -70 -317 -7 -17
13 -18 329 -18 317 0 336 1 326 18 -17 30 -49 174 -60 272 -6 52 -12 95 -13
96 -1 1 -39 4 -83 7 l-82 5 -6 -30 c-3 -17 -6 -43 -6 -59 0 -28 -2 -29 -47
-29 -69 0 -77 8 -69 69 8 59 12 57 -121 64 -70 4 -83 3 -87 -11z"/>
<path d="M588 674 c17 -33 90 -94 141 -118 44 -20 63 -21 394 -24 226 -2 347
0 347 7 0 6 -123 11 -342 13 l-343 3 -60 28 c-33 15 -80 47 -104 70 -24 23
-39 33 -33 21z"/>
<path d="M2747 533 c18 -2 50 -2 70 0 21 2 7 4 -32 4 -38 0 -55 -2 -38 -4z"/>
</g>
</svg>
