<?xml version="1.0" standalone="no"?>
<!DOCTYPE svg PUBLIC "-//W3C//DTD SVG 20010904//EN"
 "http://www.w3.org/TR/2001/REC-SVG-20010904/DTD/svg10.dtd">
<svg version="1.0" xmlns="http://www.w3.org/2000/svg"
 width="1200.000000pt" height="366.000000pt" viewBox="0 0 1200.000000 366.000000"
 preserveAspectRatio="xMidYMid meet">

<g transform="translate(0.000000,366.000000) scale(0.100000,-0.100000)"
fill="#000000" stroke="none">
<path d="M7970 3563 c-18 -15 -40 -45 -50 -67 -10 -23 -41 -69 -69 -104 -54
-67 -55 -70 -71 -174 -14 -90 -21 -108 -85 -198 -57 -81 -95 -177 -115 -292
-6 -35 -19 -90 -29 -123 -10 -33 -24 -78 -30 -100 -6 -22 -29 -62 -52 -90 -52
-63 -62 -82 -89 -180 -18 -61 -25 -122 -31 -260 -5 -109 -14 -198 -22 -225
-13 -38 -15 -41 -16 -17 -1 15 -7 40 -15 55 -19 36 -36 215 -36 369 0 119 -1
125 -25 147 -22 20 -25 32 -25 87 0 47 -6 73 -20 97 -18 29 -20 48 -18 137 l3
104 -34 35 c-34 35 -34 35 -28 108 3 42 20 117 41 178 49 150 53 173 27 199
-38 38 -64 28 -116 -44 -53 -75 -70 -112 -79 -177 -4 -25 -18 -61 -31 -80 -37
-49 -75 -130 -75 -158 0 -27 -16 -17 -22 14 -6 33 -34 43 -59 21 -22 -20 -22
-20 -15 3 11 34 -2 64 -27 60 -44 -6 -97 -125 -97 -215 0 -51 -43 -228 -96
-394 -41 -131 -47 -212 -25 -370 19 -130 5 -234 -41 -299 -77 -109 -89 -131
-98 -182 -13 -62 -6 -133 20 -203 28 -80 32 -124 16 -213 -13 -72 -13 -90 -1
-129 10 -34 12 -77 8 -157 -3 -71 -1 -126 6 -153 12 -43 41 -69 66 -59 22 8
51 74 69 159 10 43 27 99 38 124 21 47 21 119 2 270 -6 45 -2 61 24 117 17 35
41 72 55 81 38 24 47 60 46 175 -1 60 5 135 14 175 8 39 18 99 22 135 3 36 15
112 27 170 20 103 20 107 3 201 -17 91 -17 99 0 175 20 93 54 188 63 179 4 -4
7 -53 7 -110 0 -103 0 -104 32 -137 17 -18 38 -49 46 -69 8 -20 28 -46 45 -58
32 -22 41 -50 57 -176 4 -27 20 -80 36 -116 34 -80 52 -173 53 -291 2 -98 20
-136 70 -149 44 -12 53 -26 60 -95 8 -75 24 -121 52 -145 32 -28 59 -31 85
-10 22 17 24 28 29 137 5 110 9 125 43 200 34 74 37 90 37 170 1 106 12 139
72 221 60 81 84 167 71 247 -7 42 -6 83 4 152 20 133 32 158 32 67 l1 -73 50
-55 c28 -30 50 -59 50 -64 0 -5 -18 -68 -40 -140 -44 -143 -49 -197 -24 -281
9 -31 19 -119 23 -200 9 -168 27 -230 92 -324 40 -57 41 -60 30 -98 -7 -22
-15 -71 -18 -109 l-6 -69 37 -33 c31 -29 36 -39 36 -80 0 -67 13 -92 71 -133
l51 -37 -7 -67 c-6 -55 -4 -70 10 -83 19 -19 24 -20 45 -7 11 7 20 2 36 -17
15 -19 26 -24 42 -19 27 9 34 32 22 81 -5 22 -10 58 -10 80 0 27 -14 69 -46
133 -47 92 -47 92 -35 149 20 102 15 144 -25 199 -35 49 -35 50 -29 126 6 71
4 82 -24 147 -38 85 -38 105 -4 178 26 53 28 68 28 183 0 69 4 151 9 183 8 53
6 61 -17 95 -23 33 -26 51 -32 167 -6 97 -13 145 -30 190 -17 47 -23 90 -28
200 -4 104 -13 165 -31 235 -28 105 -34 227 -15 340 5 36 37 129 71 210 71
169 80 218 49 249 -27 27 -33 27 -71 -6z m54 -35 c3 -15 -11 -62 -40 -133 -84
-201 -95 -241 -107 -371 -11 -121 -10 -126 17 -236 19 -74 33 -168 42 -273 9
-107 19 -178 33 -216 15 -40 22 -91 25 -179 4 -107 8 -128 27 -153 19 -26 21
-37 14 -91 -10 -74 -10 -104 0 -176 6 -47 3 -67 -20 -130 -40 -111 -43 -166
-11 -236 22 -47 26 -71 26 -145 0 -86 1 -91 36 -142 35 -50 36 -54 28 -107
-18 -117 -12 -170 24 -229 26 -42 36 -74 48 -149 13 -90 13 -135 -1 -79 -11
41 -32 53 -55 32 -20 -19 -21 -18 -18 50 3 65 2 69 -26 89 -83 60 -88 67 -87
134 1 64 -1 68 -53 105 -23 17 -24 45 -6 158 l14 86 -39 53 c-64 87 -85 161
-85 296 0 89 -5 132 -21 184 -28 92 -22 183 19 318 43 139 42 152 -15 213
l-47 50 -4 92 c-5 104 -13 121 -43 90 -37 -36 -61 -160 -63 -318 -1 -157 -8
-180 -88 -287 l-42 -58 -7 -117 c-6 -107 -10 -126 -45 -203 -34 -77 -38 -95
-42 -193 -5 -116 -15 -136 -51 -103 -20 18 -41 86 -41 134 0 59 -19 90 -66
108 -59 22 -68 42 -60 125 4 47 2 79 -9 109 -8 23 -15 56 -15 71 0 16 -15 69
-34 117 -18 48 -37 114 -40 147 -12 98 -24 133 -57 157 -17 13 -38 41 -48 63
-10 22 -30 51 -45 64 -25 24 -26 28 -26 136 0 123 -12 160 -47 139 -29 -18
-51 -64 -79 -169 -23 -86 -25 -110 -19 -175 17 -172 14 -213 -46 -556 -13 -72
-19 -145 -17 -207 l3 -97 -38 -35 c-66 -61 -111 -188 -87 -249 6 -16 13 -61
16 -100 5 -60 2 -81 -19 -136 -14 -36 -32 -100 -42 -142 -17 -79 -37 -119 -52
-105 -4 5 -11 86 -16 180 -10 237 -10 231 -2 332 6 81 4 97 -19 164 -47 134
-33 219 53 333 49 66 58 88 70 185 8 60 6 102 -6 183 -21 142 -14 219 34 370
47 145 77 274 91 380 5 41 19 95 30 120 l21 45 -5 -46 c-4 -33 -2 -48 9 -57
12 -11 20 -6 45 23 l29 37 7 -37 c14 -71 57 -55 82 31 8 29 26 67 39 86 37 50
62 107 70 161 8 58 97 199 120 190 23 -8 18 -45 -20 -160 -41 -124 -60 -222
-51 -266 4 -17 20 -46 38 -64 l31 -32 -7 -93 c-6 -87 -4 -96 19 -140 19 -36
25 -62 25 -109 0 -54 3 -65 26 -86 26 -24 26 -26 20 -116 -7 -99 14 -350 33
-386 6 -11 11 -39 11 -63 0 -72 37 -91 69 -37 27 44 41 134 46 303 6 200 44
346 104 400 12 11 30 33 40 50 21 34 63 177 87 292 26 126 57 205 112 281 60
82 77 123 91 228 10 70 15 80 71 151 33 41 60 81 60 89 0 15 48 75 60 75 4 0
10 -10 14 -22z"/>
<path d="M789 3321 c-14 -4 -72 -43 -129 -86 -57 -42 -116 -82 -130 -87 -17
-7 -46 -6 -93 3 -64 12 -71 11 -113 -9 -24 -12 -64 -40 -89 -63 -37 -34 -49
-40 -71 -35 -40 10 -62 -2 -74 -40 -18 -53 -5 -98 45 -155 52 -57 54 -76 29
-199 -20 -102 -11 -137 60 -219 77 -89 83 -106 63 -195 -16 -74 -13 -105 17
-201 7 -22 11 -64 9 -95 -5 -52 -3 -58 37 -110 38 -50 41 -59 36 -99 -5 -34 2
-69 30 -155 39 -120 42 -183 14 -276 -13 -46 -13 -46 28 -115 45 -74 53 -120
27 -165 -23 -40 -19 -147 6 -195 12 -22 28 -57 35 -78 7 -21 23 -51 34 -67 18
-25 21 -44 21 -121 l0 -91 39 -36 c39 -34 40 -37 40 -100 0 -73 21 -119 59
-129 45 -11 56 7 59 98 3 78 5 86 38 128 45 59 51 83 27 124 -31 51 -35 92
-16 163 19 70 16 79 -49 186 -23 37 -23 37 -5 85 42 107 43 120 21 182 -17 51
-18 61 -6 93 13 34 12 41 -13 104 -21 52 -25 74 -18 94 10 29 50 40 59 15 4
-9 27 -32 52 -51 38 -29 53 -34 97 -34 59 0 74 -12 139 -115 35 -56 56 -65
102 -40 32 17 33 17 67 -9 18 -14 46 -26 60 -26 31 0 48 -23 82 -107 13 -32
34 -66 47 -76 22 -16 26 -16 71 -1 27 9 49 15 51 13 2 -2 22 -41 45 -86 44
-85 65 -106 122 -120 28 -8 40 -20 69 -73 34 -61 55 -83 150 -153 42 -31 45
-37 51 -90 5 -48 16 -71 75 -158 57 -85 76 -105 111 -121 31 -14 52 -34 78
-73 36 -56 61 -69 84 -41 8 10 10 35 6 78 -15 140 -64 255 -150 348 -44 48
-55 67 -60 107 -10 66 -44 116 -98 141 -45 21 -79 55 -109 111 -9 17 -32 39
-50 50 -52 31 -56 37 -78 108 -23 78 -32 91 -89 135 -28 23 -54 57 -79 107
-49 99 -95 137 -162 134 -45 -2 -49 0 -60 28 -19 44 -57 71 -82 58 -11 -6 -21
-9 -22 -7 -2 2 -18 31 -36 66 -32 61 -68 92 -105 92 -8 0 -15 7 -15 15 0 8 4
15 10 15 18 0 77 60 90 90 8 19 22 32 39 36 80 18 101 27 126 51 36 37 60 86
74 155 7 32 18 59 27 62 22 8 44 69 44 121 0 36 7 55 29 83 42 53 54 101 46
177 -5 39 -3 90 5 129 14 75 4 119 -35 156 -23 22 -25 30 -25 126 0 101 0 103
-31 133 -35 35 -67 46 -107 36 -67 -17 -76 -13 -84 34 -12 68 -32 84 -95 76
-44 -5 -57 -3 -90 18 -21 13 -88 50 -148 82 -95 49 -119 58 -175 61 -36 2 -77
0 -91 -5z m253 -89 c62 -32 126 -67 143 -77 18 -13 53 -22 94 -25 l66 -5 10
-45 c5 -25 14 -51 18 -57 10 -16 54 -17 95 -2 24 8 37 7 61 -5 45 -24 52 -46
49 -150 -2 -93 -2 -93 31 -131 33 -38 34 -39 27 -109 -4 -39 -7 -111 -6 -161
0 -71 -3 -95 -17 -116 -59 -86 -63 -95 -63 -147 0 -43 -5 -58 -25 -78 -16 -16
-30 -48 -41 -94 -9 -40 -27 -85 -44 -109 -26 -35 -37 -41 -90 -52 -48 -9 -65
-18 -83 -41 -27 -37 -76 -86 -114 -115 l-28 -21 21 -29 c13 -18 33 -30 54 -33
34 -5 44 -17 113 -140 17 -31 18 -32 42 -16 23 15 25 15 40 -9 50 -83 42 -77
95 -70 43 6 51 4 82 -24 19 -17 49 -61 67 -100 25 -55 43 -78 81 -106 38 -28
53 -48 69 -91 12 -30 21 -61 21 -69 0 -21 46 -71 79 -85 17 -7 35 -25 42 -42
20 -48 58 -87 111 -114 53 -27 88 -73 88 -116 0 -44 16 -74 74 -137 30 -33 64
-77 74 -98 39 -76 83 -273 62 -273 -5 0 -20 20 -35 45 -18 31 -40 52 -73 69
-37 19 -59 41 -103 107 -75 111 -79 120 -79 172 0 48 -10 60 -95 117 -60 41
-67 49 -105 122 -32 61 -61 88 -96 88 -34 0 -61 29 -98 105 -49 102 -51 103
-157 79 -25 -5 -28 -2 -43 44 -9 27 -30 70 -46 96 -24 37 -35 46 -58 46 -17 0
-45 12 -67 30 -45 36 -54 37 -89 9 -33 -26 -43 -19 -85 55 -16 29 -44 65 -61
80 -28 23 -38 26 -79 20 -45 -6 -48 -5 -109 50 -35 31 -65 56 -68 56 -12 0
-50 -24 -61 -39 -19 -24 -15 -77 9 -133 19 -45 20 -55 9 -98 -11 -41 -10 -53
3 -79 22 -41 20 -107 -4 -160 -28 -61 -25 -99 13 -163 47 -77 48 -82 32 -135
-20 -66 -19 -112 5 -158 28 -55 25 -71 -17 -124 -37 -44 -38 -48 -38 -125 0
-52 -4 -81 -12 -83 -21 -7 -43 53 -43 118 0 58 -2 64 -37 96 l-37 35 -2 94
c-2 85 -4 97 -28 125 -14 17 -26 38 -26 47 0 9 -13 42 -30 72 -36 67 -39 132
-10 190 11 22 20 48 20 59 0 30 -33 110 -63 154 -25 37 -25 39 -10 80 26 69
20 168 -16 275 -21 63 -31 112 -31 154 0 51 -4 66 -29 97 -46 59 -52 77 -45
129 4 35 2 57 -10 80 -18 35 -23 139 -11 224 10 76 4 96 -59 170 -29 35 -58
73 -65 85 -15 29 -13 95 4 168 20 85 11 124 -41 179 -38 39 -44 50 -44 88 0
57 11 74 38 59 32 -17 39 -14 90 33 26 24 66 53 90 65 36 18 48 20 80 11 53
-14 108 -12 143 6 17 8 76 49 131 90 l99 74 70 0 c64 0 76 -4 181 -58z"/>
<path d="M714 2829 c-66 -49 -69 -50 -133 -48 -56 2 -66 -1 -83 -20 -25 -32
-24 -108 2 -141 16 -20 20 -41 20 -107 0 -65 4 -87 18 -101 45 -45 54 -72 47
-133 -7 -58 -7 -58 32 -94 37 -34 38 -36 35 -96 -2 -56 0 -63 28 -89 29 -28
30 -30 17 -57 -8 -15 -18 -43 -22 -61 -12 -59 32 -82 82 -42 33 26 45 25 81
-5 40 -34 62 -32 103 11 41 43 90 70 156 84 79 18 95 44 118 183 3 20 17 49
30 65 77 86 85 99 85 147 0 30 -8 61 -22 86 l-22 39 22 23 c12 13 22 28 22 35
0 6 -25 39 -56 74 -48 53 -55 67 -50 91 7 35 -18 93 -46 108 -14 8 -28 7 -48
-1 -49 -20 -72 -10 -102 45 l-27 50 -110 2 -110 2 -67 -50z m220 11 c50 -1 51
-2 71 -43 28 -58 60 -75 114 -57 56 18 75 3 68 -58 -4 -41 -2 -47 41 -95 25
-29 50 -55 56 -59 8 -5 6 -17 -6 -39 -23 -39 -22 -57 2 -94 39 -58 25 -102
-60 -190 -25 -26 -36 -58 -44 -127 -9 -70 -33 -103 -83 -113 -61 -11 -115 -39
-161 -83 l-44 -42 -32 25 c-40 30 -78 32 -117 4 l-29 -20 0 23 c1 13 7 34 15
48 23 39 19 77 -10 96 -22 15 -25 23 -25 81 0 62 -1 66 -41 105 -25 24 -38 46
-35 55 3 8 9 31 12 52 5 32 1 43 -36 91 -41 55 -42 55 -37 128 4 64 1 76 -19
104 -24 32 -31 82 -15 107 6 9 20 11 50 6 61 -10 94 1 163 56 59 47 66 49 107
44 24 -3 67 -5 95 -5z"/>
<path d="M10681 2831 c-8 -5 -14 -24 -14 -43 5 -246 5 -250 -17 -265 -20 -14
-21 -22 -16 -92 2 -42 9 -150 14 -241 8 -142 13 -175 37 -235 17 -45 29 -98
32 -147 6 -80 25 -118 60 -118 23 0 12 -64 -32 -195 -29 -89 -34 -114 -29
-159 l6 -53 -83 -30 c-46 -17 -95 -34 -109 -38 -54 -16 -81 -72 -44 -93 12 -7
1 -17 -50 -51 -65 -42 -120 -98 -129 -131 -3 -10 4 -37 14 -60 l19 -42 -29
-37 c-16 -20 -57 -59 -91 -86 -35 -28 -68 -62 -74 -76 -6 -15 -31 -42 -56 -61
-25 -19 -55 -53 -68 -76 -15 -27 -40 -51 -70 -68 -147 -84 -290 -203 -322
-270 -21 -42 -21 -46 -6 -69 32 -48 61 -35 194 87 78 72 95 80 211 107 63 14
107 30 130 49 73 55 262 255 286 301 27 54 81 129 131 181 18 19 42 61 54 92
24 65 40 81 195 188 88 61 113 85 137 128 38 67 98 116 176 144 88 31 151 82
184 147 28 54 59 82 132 117 22 10 66 39 97 64 32 25 82 60 111 78 29 18 100
77 157 130 89 83 103 100 97 120 -4 12 -17 24 -29 28 -32 7 -189 -67 -245
-117 -26 -22 -74 -57 -107 -76 -33 -19 -69 -43 -80 -53 -11 -9 -45 -25 -75
-35 -30 -10 -71 -26 -90 -35 -19 -10 -59 -23 -88 -30 -40 -9 -60 -21 -83 -49
-26 -31 -30 -32 -23 -11 16 47 8 89 -24 136 -18 24 -32 52 -32 62 0 9 -9 31
-20 47 -17 26 -20 47 -20 150 0 141 -8 174 -52 223 -33 37 -44 67 -123 327
-37 122 -100 245 -124 245 -3 0 -12 -4 -20 -9z m113 -256 c73 -242 91 -290
125 -328 41 -45 50 -87 50 -238 1 -76 5 -111 16 -125 8 -10 15 -28 15 -39 0
-11 16 -42 35 -69 40 -57 42 -76 15 -148 -11 -29 -20 -59 -20 -65 0 -28 37
-10 86 42 42 45 66 60 121 79 167 59 207 75 234 95 16 12 52 35 81 52 28 17
75 50 103 74 46 39 192 116 219 115 18 -1 -170 -174 -230 -211 -30 -19 -78
-53 -107 -77 -28 -24 -74 -54 -102 -68 -85 -41 -108 -61 -135 -116 -31 -62
-95 -115 -173 -143 -93 -33 -168 -95 -197 -164 -9 -23 -47 -56 -134 -118 -155
-110 -172 -126 -196 -190 -12 -32 -46 -84 -83 -127 -34 -41 -76 -100 -93 -132
-31 -59 -209 -251 -284 -306 -22 -16 -69 -33 -128 -47 -119 -27 -131 -33 -235
-130 -79 -73 -127 -100 -127 -70 0 44 142 175 283 259 73 44 96 64 116 98 13
24 45 59 71 78 26 19 51 45 54 57 3 13 35 47 71 76 76 62 125 120 125 150 0
11 -7 36 -17 55 -16 34 -16 36 9 68 25 33 58 58 146 112 47 30 52 46 20 69
-28 20 -18 29 57 53 98 31 156 57 165 74 5 10 7 40 3 67 -4 40 1 70 25 144 38
115 57 202 49 222 -3 9 -18 17 -34 19 -27 3 -28 5 -39 96 -7 51 -24 121 -38
157 -23 57 -26 80 -26 183 0 64 -7 148 -15 187 -23 106 -20 139 11 160 l27 17
-5 136 -6 137 33 -65 c18 -36 45 -105 59 -155z"/>
<path d="M1849 2791 c-31 -32 -35 -57 -18 -106 10 -27 8 -38 -15 -83 -14 -28
-26 -67 -26 -85 0 -35 32 -87 53 -87 7 0 25 -13 40 -30 35 -37 75 -39 112 -7
21 18 28 35 35 87 4 36 13 85 20 110 15 61 1 98 -40 106 -27 6 -30 10 -30 45
0 78 -75 106 -131 50z m80 -10 c9 -6 14 -24 13 -48 -3 -61 5 -73 45 -73 l36 0
-8 -52 c-4 -29 -10 -78 -14 -109 -4 -31 -13 -64 -20 -73 -19 -23 -60 -20 -86
7 -13 12 -34 30 -49 40 -33 23 -33 47 0 117 25 53 27 86 9 132 -5 11 2 26 19
43 27 27 34 29 55 16z"/>
<path d="M3330 2755 c-16 -17 -27 -22 -34 -15 -14 14 -62 12 -74 -3 -15 -17
-16 -50 -7 -172 8 -112 -4 -200 -55 -385 -16 -58 -33 -127 -39 -155 -5 -27
-22 -84 -37 -126 -24 -69 -25 -79 -13 -105 24 -49 58 -44 114 18 l48 53 -7
-35 c-3 -19 -11 -71 -17 -115 -6 -44 -19 -100 -30 -124 -23 -52 -23 -69 -3
-96 10 -14 13 -32 9 -60 -21 -144 -40 -240 -61 -308 -29 -95 -29 -149 -1 -202
32 -58 55 -54 89 15 52 107 87 217 110 350 23 131 24 135 50 138 14 2 34 12
44 23 25 28 38 24 53 -16 7 -19 21 -40 32 -45 27 -15 77 -119 93 -196 12 -55
21 -74 55 -108 29 -30 50 -66 70 -119 16 -43 43 -100 61 -127 32 -50 55 -122
70 -220 10 -71 18 -88 41 -95 29 -9 58 12 64 48 6 30 10 33 35 29 60 -9 63 61
10 212 -43 123 -58 182 -74 288 -12 78 -21 109 -49 155 -20 33 -38 78 -42 105
-6 48 -45 108 -68 108 -7 0 -28 5 -48 10 -30 8 -49 27 -102 98 -36 48 -72 103
-81 122 -9 19 -24 47 -33 62 -22 33 -6 73 34 89 65 25 156 75 183 102 16 15
40 59 55 96 27 71 49 98 102 125 48 24 102 74 123 115 10 20 40 54 66 76 104
88 112 103 72 129 -52 34 -163 -25 -326 -174 -86 -77 -115 -98 -146 -103 -25
-4 -55 -20 -85 -47 -46 -40 -156 -101 -166 -92 -10 11 -5 71 10 105 17 41 20
133 5 142 -5 3 -10 21 -10 40 0 18 -5 56 -11 83 -10 43 -9 56 10 106 26 69 29
171 5 204 -21 30 -64 29 -94 -3z m70 -24 c17 -32 12 -93 -15 -170 -18 -55 -22
-78 -15 -97 6 -14 10 -44 10 -66 0 -22 8 -62 17 -88 16 -46 16 -50 -5 -114
-17 -52 -21 -79 -16 -122 4 -30 11 -57 15 -60 5 -3 24 6 41 19 18 14 49 32 69
40 19 8 59 35 88 61 36 32 64 48 92 52 34 6 61 25 153 108 117 105 223 176
264 176 33 0 26 -11 -43 -71 -33 -29 -73 -73 -90 -98 -19 -29 -55 -62 -95 -88
-82 -54 -104 -79 -125 -145 -10 -29 -26 -65 -36 -79 -19 -27 -145 -99 -174
-99 -9 0 -30 -13 -46 -29 -35 -36 -40 -94 -10 -132 10 -13 26 -40 36 -59 23
-46 122 -180 149 -202 12 -9 38 -20 60 -24 50 -8 76 -35 76 -79 0 -20 16 -64
39 -109 31 -59 44 -98 60 -193 11 -65 38 -172 61 -238 41 -122 53 -209 26
-186 -8 6 -19 25 -26 41 -7 17 -19 30 -26 30 -11 0 -14 -18 -14 -75 0 -97 -21
-104 -37 -13 -20 117 -43 189 -74 234 -16 24 -38 68 -48 98 -27 77 -49 117
-88 157 -26 28 -37 51 -48 101 -16 77 -57 162 -94 198 -15 14 -33 40 -40 58
-19 45 -57 54 -85 19 -16 -20 -27 -24 -48 -20 -36 7 -41 -5 -73 -187 -15 -82
-37 -168 -51 -199 -13 -29 -24 -58 -24 -65 0 -6 -10 -31 -21 -56 l-21 -45 -20
39 c-22 43 -20 69 12 171 21 65 60 284 60 334 0 18 -6 42 -14 54 -13 19 -12
27 4 63 11 23 24 79 29 125 6 46 15 99 20 117 11 38 -1 82 -23 82 -8 0 -37
-25 -65 -56 -30 -32 -55 -52 -62 -48 -17 10 -4 82 26 147 14 31 25 71 25 89 0
18 15 85 34 149 49 167 60 249 53 399 -4 77 -3 132 3 135 5 3 20 -1 34 -10 23
-16 26 -15 58 14 39 36 44 37 58 12z"/>
<path d="M10164 2642 c-37 -29 -142 -250 -150 -312 -4 -30 -15 -77 -25 -105
-10 -27 -20 -77 -23 -110 -3 -33 -12 -77 -20 -97 -9 -21 -16 -64 -16 -96 0
-66 -11 -82 -54 -82 -17 0 -44 -9 -61 -20 -16 -11 -42 -20 -57 -20 -30 0 -68
-31 -68 -55 0 -26 38 -55 73 -55 17 0 57 -13 87 -30 30 -16 65 -29 78 -30 26
0 27 -2 6 -42 -9 -17 -20 -56 -26 -87 -5 -31 -11 -71 -15 -88 -3 -20 1 -50 11
-74 14 -34 15 -48 5 -76 -6 -19 -8 -55 -5 -81 18 -138 18 -173 2 -245 -23
-105 -23 -229 1 -270 24 -41 63 -44 73 -7 4 14 19 66 34 115 16 56 31 147 40
240 10 111 20 163 36 199 19 42 21 59 16 117 -5 48 -3 75 6 91 8 14 12 56 11
110 -1 49 3 90 8 94 6 3 28 -6 49 -21 33 -23 49 -27 111 -27 57 -1 81 -6 113
-24 45 -26 114 -32 134 -12 7 7 12 22 12 34 0 14 8 25 20 29 29 9 43 40 30 66
-15 27 -69 59 -102 59 -14 0 -41 12 -59 28 -27 22 -43 27 -92 29 -48 1 -62 5
-74 23 -14 20 -22 22 -84 18 -52 -4 -69 -2 -69 7 0 7 13 54 30 105 16 50 35
121 40 157 6 36 18 82 26 102 9 20 16 55 16 78 1 38 -6 54 -46 108 -5 7 8 39
38 90 55 96 66 138 41 165 -22 25 -72 26 -101 2z m76 -45 c0 -11 -20 -57 -45
-103 -25 -45 -45 -92 -45 -104 0 -12 11 -35 25 -52 30 -35 31 -63 6 -137 -10
-31 -24 -85 -31 -121 -6 -36 -26 -107 -43 -158 -41 -120 -37 -127 64 -127 71
0 74 -1 77 -25 5 -38 15 -42 55 -25 44 18 80 12 120 -22 16 -12 39 -23 52 -23
31 0 95 -30 95 -45 0 -6 -16 -19 -36 -28 -31 -15 -35 -21 -30 -42 9 -34 -17
-33 -89 5 -50 26 -63 29 -115 23 -54 -5 -62 -3 -106 26 -54 35 -62 37 -89 17
-17 -12 -19 -25 -17 -98 2 -52 -2 -98 -11 -123 -9 -26 -12 -65 -9 -109 4 -55
0 -77 -17 -115 -15 -34 -25 -89 -36 -206 -10 -118 -22 -184 -43 -249 -19 -59
-31 -85 -37 -76 -16 26 -17 145 -1 220 19 88 21 202 4 263 -9 36 -8 52 5 90
15 43 14 49 -5 99 -18 49 -19 55 -4 86 9 18 16 48 16 66 0 18 9 53 20 78 19
44 18 87 -4 89 -6 1 -21 0 -34 -1 -12 -1 -42 10 -67 24 -24 14 -59 26 -78 26
-40 0 -70 26 -46 41 8 5 24 9 37 9 12 0 39 9 59 20 21 11 50 20 65 20 29 0 57
22 60 48 0 9 2 42 3 72 1 30 9 69 18 87 9 18 17 55 17 82 0 28 9 74 20 103 11
29 23 78 26 108 8 68 118 298 149 310 28 10 45 2 45 -23z"/>
<path d="M9096 2428 c-15 -25 -32 -248 -28 -373 2 -38 -3 -99 -11 -135 -19
-89 -13 -124 30 -159 40 -33 41 -57 7 -143 -18 -47 -18 -48 5 -102 18 -45 21
-61 12 -93 -5 -21 -9 -98 -9 -171 0 -146 6 -162 57 -162 45 0 64 31 71 118 4
42 16 101 29 131 19 47 22 70 20 176 -2 149 14 192 21 57 5 -91 6 -93 41 -125
20 -18 58 -66 86 -107 28 -41 60 -84 72 -94 25 -22 41 -76 39 -128 -1 -20 8
-67 19 -104 12 -38 26 -89 33 -113 15 -55 50 -91 89 -91 67 0 79 67 31 173
-28 62 -30 75 -30 181 l0 115 -45 86 c-37 70 -45 92 -40 119 10 50 -17 101
-92 174 -60 59 -65 67 -48 76 10 6 41 26 69 45 28 19 73 42 100 52 132 49 172
173 95 287 -18 26 -40 59 -50 73 -11 17 -14 31 -8 40 18 29 10 79 -17 104 -23
21 -37 25 -93 25 -38 1 -77 7 -91 15 -48 27 -79 19 -128 -32 -24 -27 -57 -67
-72 -91 -35 -54 -42 -45 -50 70 -5 64 -11 93 -25 108 -25 27 -71 26 -89 -2z
m69 -29 c4 -6 11 -50 16 -97 17 -160 20 -173 37 -170 9 2 31 29 49 61 32 58
102 145 128 159 7 4 34 -2 60 -13 37 -16 59 -20 96 -15 41 6 52 3 70 -15 14
-14 19 -27 14 -42 -20 -64 -15 -78 58 -174 21 -28 27 -47 27 -87 0 -68 -38
-117 -110 -141 -28 -9 -64 -28 -79 -41 -16 -13 -45 -31 -65 -39 -50 -21 -70
-54 -55 -89 7 -14 16 -26 20 -26 14 0 72 -54 100 -94 23 -31 29 -49 29 -93 0
-45 7 -67 43 -131 l42 -77 -2 -109 c-2 -100 0 -114 26 -175 48 -114 49 -161 2
-146 -26 8 -45 44 -60 113 -6 29 -18 69 -26 88 -8 20 -15 63 -15 96 0 60 -15
103 -46 128 -9 8 -38 47 -65 86 -26 39 -63 86 -82 104 -34 32 -35 35 -39 121
-3 97 -18 127 -56 115 -31 -10 -36 -31 -37 -176 -1 -113 -5 -142 -22 -180 -11
-25 -23 -79 -27 -120 -7 -78 -26 -114 -47 -93 -10 10 -12 93 -6 323 0 30 -6
70 -13 88 -13 29 -13 38 4 80 10 26 20 64 23 84 5 37 -2 48 -61 96 -20 16 -20
67 0 145 9 34 14 82 11 107 -2 25 0 116 6 203 10 139 13 157 28 157 10 0 21
-5 24 -11z"/>
<path d="M9383 2170 c-19 -11 -43 -41 -58 -70 -14 -27 -31 -50 -39 -50 -23 0
-46 -35 -46 -71 0 -27 8 -43 34 -68 19 -19 40 -47 47 -62 25 -61 92 -46 142
31 27 42 28 49 22 116 l-6 72 41 32 c24 19 40 39 38 48 -8 42 -119 56 -175 22z
m99 -58 c-23 -22 -42 -41 -42 -44 0 -2 5 -30 10 -61 13 -65 -3 -112 -48 -147
-31 -25 -39 -25 -47 1 -4 12 -25 41 -47 65 -45 49 -46 72 -5 92 16 8 38 34 52
62 30 60 45 69 114 70 l54 0 -41 -38z"/>
<path d="M8566 2285 c-43 -15 -112 -78 -157 -142 -16 -22 -45 -51 -65 -64 -52
-32 -92 -93 -100 -150 -4 -30 -20 -69 -40 -101 -44 -68 -45 -115 -4 -192 28
-55 29 -60 27 -186 -2 -121 -1 -131 20 -151 13 -14 33 -22 53 -21 40 1 137
-51 170 -90 25 -29 29 -31 71 -24 24 4 69 11 99 15 88 10 157 65 263 210 81
109 82 162 8 269 -23 32 -41 69 -41 82 0 14 11 52 25 85 29 70 32 149 9 210
-9 22 -19 57 -24 78 -7 34 -35 74 -80 115 -25 23 -113 60 -155 66 -24 3 -56 0
-79 -9z m161 -53 c57 -29 110 -88 118 -130 4 -20 13 -49 21 -64 23 -45 18
-149 -11 -218 -14 -33 -25 -70 -25 -83 0 -13 23 -57 50 -98 75 -110 68 -146
-52 -289 -77 -91 -151 -144 -190 -136 -15 3 -48 -2 -74 -11 -46 -16 -48 -15
-65 6 -10 12 -19 25 -21 29 -7 16 -133 72 -163 72 -51 0 -56 14 -54 153 2 122
1 126 -30 192 -36 75 -36 97 5 157 14 20 34 69 44 110 15 62 23 77 56 103 46
37 86 77 144 145 64 76 94 92 156 86 28 -2 69 -13 91 -24z"/>
<path d="M8502 2022 c-39 -37 -52 -69 -52 -131 0 -38 -5 -52 -26 -72 -41 -38
-54 -73 -54 -141 0 -82 23 -129 67 -140 34 -9 83 -68 83 -99 0 -27 24 -41 52
-30 13 5 35 7 49 4 33 -6 59 19 59 57 0 15 -10 54 -22 85 l-21 56 21 62 c28
78 28 103 1 125 -100 80 -101 84 -72 165 13 35 15 52 7 65 -18 29 -57 26 -92
-6z m53 -42 c-8 -16 -15 -51 -15 -78 0 -45 4 -53 40 -86 22 -20 45 -36 50 -36
15 0 12 -56 -5 -97 -20 -48 -19 -88 6 -157 11 -32 17 -62 12 -66 -4 -4 -27
-10 -50 -13 -35 -4 -43 -2 -43 11 0 10 -16 38 -35 65 -26 34 -42 47 -60 47
-29 0 -41 19 -49 85 -9 61 3 95 49 147 32 34 35 44 35 97 0 48 4 63 25 85 13
14 31 26 40 26 14 0 14 -3 0 -30z"/>
<path d="M1970 2251 c-24 -13 -42 -16 -56 -10 -37 13 -59 -12 -56 -63 5 -70 5
-90 -3 -143 -6 -45 -5 -52 18 -73 28 -26 27 -38 -13 -145 -23 -65 -20 -85 17
-134 23 -29 24 -40 23 -130 -3 -130 6 -217 26 -255 13 -24 15 -51 12 -117 -6
-102 4 -143 39 -171 32 -25 38 -25 63 0 17 17 20 33 20 125 0 91 4 114 26 166
37 89 41 145 15 204 -24 54 -22 67 21 134 37 59 32 94 -19 138 -36 30 -38 35
-38 90 0 32 7 86 15 121 12 53 12 69 0 110 -7 26 -12 68 -11 94 2 38 -2 49
-21 62 -29 20 -36 20 -78 -3z m62 -64 c-2 -20 4 -57 13 -82 16 -41 16 -48 0
-121 -10 -47 -15 -101 -13 -137 4 -55 8 -63 41 -91 45 -38 46 -60 7 -123 -36
-56 -37 -74 -8 -148 l21 -56 -31 -92 c-27 -78 -32 -108 -32 -184 0 -99 -5
-123 -26 -123 -25 0 -34 39 -34 150 0 83 -4 119 -16 142 -13 25 -17 67 -19
189 -2 152 -3 158 -29 191 -32 43 -33 63 -1 138 32 77 32 113 -1 143 -24 23
-25 26 -14 67 7 26 9 66 5 101 l-7 59 30 -6 c20 -4 38 -1 54 10 13 9 32 15 43
14 17 -3 19 -9 17 -41z"/>
<path d="M5812 2254 c-33 -23 -61 -85 -79 -172 -8 -43 -19 -95 -23 -117 -5
-22 -18 -60 -28 -85 -11 -25 -25 -71 -32 -102 -10 -53 -16 -61 -72 -105 -33
-26 -70 -59 -82 -72 -11 -13 -33 -35 -48 -48 -14 -14 -31 -44 -37 -68 -6 -24
-16 -47 -21 -50 -14 -9 -2 99 16 148 8 20 14 56 14 80 0 23 9 85 20 137 11 52
20 113 20 135 0 93 -66 114 -109 36 -22 -40 -66 -146 -95 -228 -14 -41 -19
-41 -33 -3 -7 20 -20 31 -39 35 -16 4 -34 8 -40 10 -6 2 -19 35 -29 75 -9 39
-25 79 -34 90 -25 29 -64 35 -84 12 -15 -16 -18 -43 -20 -178 -2 -142 -4 -163
-23 -192 l-21 -33 -17 26 c-10 14 -21 50 -26 79 -4 28 -15 74 -23 102 -17 58
-36 175 -46 293 -6 70 -11 87 -30 102 -13 11 -28 19 -33 19 -24 0 -68 -61 -83
-116 -25 -90 -32 -104 -56 -104 -35 0 -55 -25 -90 -112 -31 -79 -32 -81 -19
-148 12 -62 11 -73 -10 -141 -12 -40 -35 -99 -51 -131 -32 -64 -36 -111 -14
-165 8 -19 15 -55 15 -79 0 -35 5 -47 24 -60 33 -21 49 -11 86 60 25 47 31 67
26 96 -4 28 0 44 18 70 12 19 26 50 29 68 8 39 36 102 46 102 12 -1 48 -36 60
-59 7 -13 23 -60 37 -105 13 -44 38 -110 56 -146 37 -73 68 -88 102 -51 21 23
22 36 11 181 -6 85 -5 103 5 93 7 -7 17 -41 22 -75 6 -49 14 -68 34 -85 32
-29 36 -29 71 1 26 22 28 29 31 119 2 60 -1 104 -8 117 -15 28 -8 35 19 18 26
-16 113 -158 144 -236 20 -49 27 -57 52 -60 34 -4 55 18 55 59 0 15 5 31 10
34 6 4 10 -5 10 -20 0 -51 92 -115 202 -139 37 -8 90 15 107 47 18 33 31 35
31 5 1 -42 37 -106 70 -123 37 -19 62 -13 90 22 29 37 25 83 -15 198 -33 94
-35 107 -35 228 0 111 4 145 30 247 l31 119 -20 45 c-23 48 -19 93 13 185 21
57 20 94 -2 114 -23 21 -51 22 -80 1z m62 -33 c3 -5 -6 -46 -19 -92 -29 -97
-31 -146 -8 -188 17 -29 17 -33 -15 -158 -29 -118 -32 -138 -28 -259 3 -113 7
-139 30 -197 38 -96 48 -156 30 -184 -16 -25 -26 -28 -53 -13 -22 11 -36 45
-51 122 -15 75 -45 85 -64 22 -11 -37 -53 -74 -83 -74 -36 0 -141 43 -170 69
-29 25 -31 100 -5 182 21 68 59 112 173 203 50 40 58 52 68 98 7 29 23 82 35
118 28 77 46 146 56 216 7 47 29 102 52 132 12 14 44 16 52 3z m-1099 -91 c3
-5 10 -49 15 -97 12 -121 38 -280 49 -301 4 -9 12 -39 16 -67 4 -27 16 -68 28
-90 20 -39 24 -83 31 -340 3 -112 -56 -34 -108 143 -12 42 -29 89 -37 103 -22
40 -75 81 -97 75 -23 -8 -72 -95 -72 -129 0 -13 -9 -36 -20 -50 -29 -37 -39
-69 -29 -96 7 -18 3 -35 -22 -77 -17 -30 -35 -52 -40 -49 -5 4 -9 24 -9 47 0
22 -8 62 -17 88 l-17 48 36 79 c20 43 46 110 58 149 19 66 20 76 7 131 -13 58
-13 63 12 130 31 83 46 103 77 103 29 0 48 29 63 96 19 80 58 134 76 104z
m646 -167 c7 -19 5 -55 -10 -137 -11 -61 -25 -140 -31 -176 -6 -36 -15 -90
-20 -120 -6 -30 -12 -91 -14 -135 -5 -119 -24 -170 -41 -112 -21 68 -112 225
-159 273 -17 17 -38 42 -48 55 -28 41 -42 13 -33 -68 11 -107 7 -226 -10 -242
-24 -25 -45 4 -45 63 0 35 -6 59 -20 76 -26 34 -26 98 1 150 13 24 21 59 21
83 0 23 2 93 5 155 4 85 8 112 19 112 18 0 29 -23 49 -100 20 -76 38 -100 76
-100 24 0 29 -6 43 -47 9 -27 25 -59 36 -73 17 -21 21 -23 30 -10 5 8 10 34
10 57 0 42 36 147 90 261 16 34 32 62 35 62 3 0 10 -12 16 -27z"/>
<path d="M5613 1545 c-23 -18 -47 -35 -53 -37 -15 -5 -39 -76 -40 -120 0 -29
6 -42 31 -62 34 -29 44 -31 75 -13 31 17 93 94 100 124 11 40 -2 116 -22 130
-26 19 -44 15 -91 -22z m81 -39 c8 -41 -4 -75 -46 -127 -35 -44 -56 -49 -83
-19 -17 18 -17 23 -3 66 11 34 26 55 59 80 24 18 49 33 55 33 7 1 15 -14 18
-33z"/>
<path d="M4687 1893 c-21 -35 -77 -201 -75 -222 3 -23 7 -26 43 -27 22 0 50
-6 63 -13 18 -10 26 -10 38 0 21 17 9 225 -14 252 -15 17 -47 23 -55 10z m39
-101 c0 -31 4 -74 9 -96 l8 -38 -31 16 c-17 9 -38 13 -46 10 -23 -9 -20 16 8
84 12 31 26 66 30 76 11 31 20 9 22 -52z"/>
<path d="M2699 2233 c-49 -8 -133 -65 -142 -98 -16 -51 -20 -55 -82 -80 -73
-30 -101 -62 -108 -125 -3 -26 -17 -75 -31 -109 -14 -33 -26 -75 -26 -94 0
-23 -15 -56 -46 -105 -37 -58 -45 -78 -42 -109 2 -28 9 -41 25 -48 17 -7 21
-15 16 -30 -31 -98 -19 -129 52 -133 62 -4 75 -14 68 -56 -4 -27 1 -39 26 -68
17 -20 31 -46 31 -59 0 -44 21 -99 41 -110 32 -17 61 10 103 98 49 102 62 116
101 109 24 -5 43 1 85 29 49 30 63 35 122 35 65 0 67 1 101 41 19 22 37 52 40
67 12 63 -34 100 -82 64 -48 -35 -63 -35 -135 4 -61 32 -71 34 -96 24 -16 -7
-42 -9 -59 -5 -24 5 -43 0 -85 -24 -49 -28 -56 -30 -70 -16 -18 18 -15 30 38
129 20 37 36 74 36 81 0 8 -13 30 -30 48 -16 19 -30 41 -30 49 0 24 36 64 126
139 95 79 110 99 94 129 -9 17 -7 22 15 30 15 6 50 10 78 10 104 0 187 46 187
104 0 45 -37 60 -130 52 -72 -7 -83 -5 -106 13 -26 21 -34 22 -85 14z m83 -54
c28 -21 34 -21 97 -9 52 10 73 10 89 1 18 -10 20 -15 12 -31 -18 -34 -52 -48
-130 -55 -92 -8 -132 -20 -155 -45 -17 -19 -17 -21 -1 -39 16 -18 15 -21 -40
-67 -122 -104 -153 -137 -164 -169 -13 -39 -2 -68 30 -85 29 -16 25 -42 -20
-127 -45 -86 -49 -110 -20 -141 27 -29 59 -28 106 4 30 20 45 25 73 20 20 -3
50 0 68 6 28 10 36 9 74 -16 58 -39 110 -45 145 -17 15 11 33 21 40 21 31 0 7
-74 -34 -107 -9 -7 -43 -13 -77 -13 -51 0 -69 -5 -108 -30 -31 -20 -61 -30
-85 -30 -21 0 -46 -6 -55 -12 -9 -7 -38 -53 -64 -102 -64 -120 -75 -122 -88
-23 -4 32 -15 57 -35 78 -23 26 -27 38 -23 68 7 50 -21 75 -85 76 -40 0 -47 3
-50 22 -2 12 9 51 23 88 30 73 28 103 -4 85 -11 -5 -23 -15 -26 -20 -3 -6 -10
-10 -16 -10 -20 0 -7 40 36 107 34 53 47 85 52 125 3 29 17 76 30 103 12 28
23 66 23 86 0 50 30 84 93 105 63 20 87 40 87 69 0 30 26 59 75 84 51 27 89
27 127 0z"/>
</g>
</svg>
