<?xml version="1.0" standalone="no"?>
<!DOCTYPE svg PUBLIC "-//W3C//DTD SVG 20010904//EN"
 "http://www.w3.org/TR/2001/REC-SVG-20010904/DTD/svg10.dtd">
<svg version="1.0" xmlns="http://www.w3.org/2000/svg"
 width="256.000000pt" height="249.000000pt" viewBox="0 0 256.000000 249.000000"
 preserveAspectRatio="xMidYMid meet">

<g transform="translate(0.000000,249.000000) scale(0.100000,-0.100000)"
fill="#000000" stroke="none">
<path d="M0 1245 l0 -1245 1280 0 1280 0 0 1245 0 1245 -1280 0 -1280 0 0
-1245z m1810 1152 c0 -8 -18 -105 -40 -218 -22 -112 -39 -215 -38 -229 3 -25
4 -25 93 -23 50 1 119 7 154 13 72 12 226 60 313 96 32 13 62 24 67 24 21 0
-61 -217 -143 -378 -51 -100 -68 -152 -48 -152 4 0 71 18 150 41 78 23 145 39
149 36 13 -14 -26 -188 -57 -249 -39 -77 -123 -181 -208 -258 l-64 -57 16 -31
c8 -16 29 -41 46 -56 32 -26 50 -32 183 -61 42 -9 77 -18 77 -21 0 -14 -44
-87 -79 -131 -46 -59 -100 -99 -221 -163 l-85 -45 -3 -157 -3 -158 -27 0 c-70
1 -262 56 -262 76 0 3 17 31 39 62 52 77 79 132 95 194 l13 52 64 16 c35 9 74
22 87 29 36 19 62 70 62 121 0 77 -45 126 -131 144 l-26 6 -6 197 c-4 154 -10
217 -27 283 -51 209 -210 416 -375 490 -96 44 -158 55 -295 53 -196 -2 -320
-50 -432 -166 -118 -123 -203 -402 -224 -734 l-7 -112 -46 -23 c-63 -31 -95
-89 -95 -173 0 -104 59 -165 157 -165 l44 0 12 -58 c7 -38 27 -82 60 -134 33
-50 46 -80 39 -84 -12 -8 -182 -63 -184 -61 -1 1 8 47 21 102 23 102 22 117
-11 150 -15 14 -42 16 -219 13 -112 -2 -206 0 -210 4 -15 15 88 170 227 339
43 53 78 104 78 113 0 22 -70 71 -130 91 -26 9 -94 21 -151 28 l-104 12 90 94
c50 52 116 114 149 137 32 24 66 54 76 67 18 23 18 24 -38 94 -113 141 -201
317 -202 401 l0 32 286 0 286 0 -6 33 c-33 177 -64 437 -52 437 3 0 44 -14 93
-31 134 -48 268 -113 343 -169 37 -27 72 -50 77 -50 6 0 54 29 107 65 123 84
231 137 353 176 54 17 103 32 108 34 22 7 35 4 35 -8z m-401 -538 c134 -23
250 -100 333 -222 57 -84 114 -209 140 -307 71 -272 -34 -821 -187 -972 l-27
-27 -51 35 c-37 25 -53 32 -61 24 -8 -8 -1 -20 27 -43 43 -37 46 -50 15 -64
-19 -8 -30 -4 -72 29 -27 21 -53 37 -59 35 -23 -7 -16 -25 23 -52 45 -31 48
-40 21 -55 -34 -17 -54 -11 -96 30 -26 25 -45 36 -53 31 -9 -6 -5 -17 19 -47
l31 -39 -74 -7 c-121 -10 -278 7 -338 37 -109 55 -207 202 -251 375 -30 119
-38 485 -15 640 58 379 188 563 426 603 52 9 186 7 249 -4z m634 -1037 c37
-33 10 -110 -52 -141 -21 -11 -41 -18 -44 -15 -3 3 1 27 9 52 7 26 14 63 14
83 0 20 3 39 7 42 9 10 44 -2 66 -21z m-1403 -54 c6 -40 10 -85 8 -101 l-3
-27 -35 17 c-46 24 -61 54 -48 101 9 35 43 82 58 82 4 0 13 -33 20 -72z m738
-680 c3 -34 1 -38 -20 -39 -13 -1 -27 0 -33 1 -5 1 -32 4 -60 5 -50 3 -50 4
-53 40 l-3 36 83 -3 83 -3 3 -37z"/>
<path d="M1573 2277 c-33 -18 -76 -44 -94 -59 -28 -21 -32 -29 -21 -39 10 -11
16 -11 30 -1 9 7 50 28 90 48 69 33 80 45 64 71 -5 9 -24 3 -69 -20z"/>
<path d="M765 2239 c12 -82 28 -149 35 -149 19 0 32 33 28 71 l-4 40 36 -6
c19 -4 40 -7 45 -8 6 -1 10 7 10 18 0 15 -14 25 -55 41 -107 42 -103 42 -95
-7z"/>
<path d="M1125 1674 c-198 -30 -277 -76 -259 -152 12 -49 18 -51 103 -26 164
47 470 57 631 19 135 -32 120 -35 120 28 l0 55 -49 21 c-95 41 -169 53 -346
56 -93 2 -183 1 -200 -1z m430 -58 c88 -20 122 -34 130 -53 9 -25 0 -26 -72
-8 -144 37 -398 35 -590 -4 -100 -21 -119 -18 -105 18 9 26 33 39 92 50 30 6
64 13 75 15 44 11 402 -4 470 -18z"/>
<path d="M990 1434 c-57 -10 -70 -15 -101 -41 -82 -69 -93 -215 -23 -309 28
-38 101 -74 150 -74 84 0 173 52 200 116 29 70 12 196 -34 247 -38 42 -130 71
-192 61z m116 -55 c121 -58 123 -246 4 -306 -89 -46 -182 -23 -227 55 -94 160
59 331 223 251z"/>
<path d="M1001 1241 c-12 -12 -21 -25 -21 -31 0 -5 9 -19 21 -31 18 -18 23
-19 42 -6 12 8 22 25 22 37 0 12 -10 29 -22 37 -19 13 -24 12 -42 -6z"/>
<path d="M1428 1420 c-49 -15 -86 -49 -114 -106 -23 -48 -26 -63 -22 -124 11
-145 107 -231 243 -217 127 13 205 100 205 226 0 141 -89 231 -225 230 -33 0
-72 -4 -87 -9z m182 -52 c64 -33 93 -91 88 -179 -3 -54 -9 -73 -31 -103 -78
-101 -235 -99 -303 4 -61 92 -36 229 51 277 55 31 135 31 195 1z"/>
<path d="M1496 1224 c-31 -31 -13 -74 31 -74 43 0 52 59 12 80 -23 13 -25 13
-43 -6z"/>
<path d="M843 984 c-14 -36 72 -74 169 -74 65 0 108 13 108 34 0 11 -16 13
-83 9 -75 -5 -87 -3 -135 21 -47 24 -53 25 -59 10z"/>
<path d="M1665 949 c-42 -24 -61 -29 -122 -29 -57 0 -73 -3 -73 -14 0 -31 101
-38 177 -11 56 19 108 58 99 74 -10 16 -25 12 -81 -20z"/>
<path d="M1345 918 c-2 -7 -6 -56 -8 -108 -6 -132 -34 -183 -76 -141 -21 21
-41 119 -41 199 0 40 -4 52 -15 52 -12 0 -15 -16 -15 -86 0 -47 5 -105 11
-129 31 -124 140 -127 168 -5 11 49 15 189 5 214 -7 19 -23 21 -29 4z"/>
<path d="M1590 645 c-10 -12 -8 -16 12 -24 37 -14 51 -37 46 -76 -3 -29 -1
-35 15 -35 17 0 19 5 14 45 -7 65 -61 121 -87 90z"/>
<path d="M886 607 c-23 -34 -25 -90 -3 -95 13 -3 17 3 17 31 0 21 7 41 20 52
11 10 17 22 14 26 -10 16 -33 9 -48 -14z"/>
<path d="M1500 534 c-147 -47 -365 -54 -477 -14 -71 25 -73 25 -73 0 0 -56
303 -91 474 -55 103 22 156 44 156 66 0 22 -17 23 -80 3z"/>
</g>
</svg>
